<mxfile host="app.diagrams.net" modified="2021-05-17T06:03:05.374Z" agent="5.0 (Windows NT 10.0; Win64; x64) AppleWebKit/537.36 (KHTML, like Gecko) Chrome/90.0.4430.212 Safari/537.36" etag="KFhvHPG4GPD6JlquF1gu" version="14.6.13" type="github">
  <diagram id="KurNlbq6RuvW-whZrr8H" name="第 1 页">
    <mxGraphModel dx="1038" dy="709" grid="1" gridSize="10" guides="1" tooltips="1" connect="1" arrows="1" fold="1" page="1" pageScale="1" pageWidth="827" pageHeight="1169" math="0" shadow="0">
      <root>
        <mxCell id="0" />
        <mxCell id="1" parent="0" />
        <mxCell id="bgZHBFGTuroAZLbvqYEN-7" style="edgeStyle=orthogonalEdgeStyle;rounded=0;orthogonalLoop=1;jettySize=auto;html=1;entryX=0.5;entryY=0;entryDx=0;entryDy=0;" edge="1" parent="1" source="bgZHBFGTuroAZLbvqYEN-1" target="bgZHBFGTuroAZLbvqYEN-4">
          <mxGeometry relative="1" as="geometry" />
        </mxCell>
        <mxCell id="bgZHBFGTuroAZLbvqYEN-1" value="安装及更新离线执行机（第一次使用需要添加&lt;b&gt;&lt;font color=&quot;#ff0000&quot;&gt;授权文件&lt;/font&gt;&lt;/b&gt;）并启动" style="rounded=0;whiteSpace=wrap;html=1;fillColor=#f5f5f5;strokeColor=#666666;fontColor=#333333;" vertex="1" parent="1">
          <mxGeometry x="80" y="200" width="120" height="60" as="geometry" />
        </mxCell>
        <mxCell id="bgZHBFGTuroAZLbvqYEN-8" style="edgeStyle=orthogonalEdgeStyle;rounded=0;orthogonalLoop=1;jettySize=auto;html=1;exitX=0.5;exitY=1;exitDx=0;exitDy=0;entryX=0.5;entryY=0;entryDx=0;entryDy=0;" edge="1" parent="1" source="bgZHBFGTuroAZLbvqYEN-4" target="bgZHBFGTuroAZLbvqYEN-5">
          <mxGeometry relative="1" as="geometry" />
        </mxCell>
        <mxCell id="bgZHBFGTuroAZLbvqYEN-4" value="上传测试用例" style="rounded=0;whiteSpace=wrap;html=1;fillColor=#dae8fc;strokeColor=#6c8ebf;" vertex="1" parent="1">
          <mxGeometry x="80" y="290" width="120" height="60" as="geometry" />
        </mxCell>
        <mxCell id="bgZHBFGTuroAZLbvqYEN-9" value="" style="edgeStyle=orthogonalEdgeStyle;rounded=0;orthogonalLoop=1;jettySize=auto;html=1;" edge="1" parent="1" source="bgZHBFGTuroAZLbvqYEN-5" target="bgZHBFGTuroAZLbvqYEN-6">
          <mxGeometry relative="1" as="geometry" />
        </mxCell>
        <mxCell id="bgZHBFGTuroAZLbvqYEN-5" value="配置环境参数" style="rounded=0;whiteSpace=wrap;html=1;fillColor=#d5e8d4;strokeColor=#82b366;" vertex="1" parent="1">
          <mxGeometry x="80" y="381" width="120" height="60" as="geometry" />
        </mxCell>
        <mxCell id="bgZHBFGTuroAZLbvqYEN-6" value="执行测试用例" style="rounded=0;whiteSpace=wrap;html=1;fillColor=#ffe6cc;strokeColor=#d79b00;" vertex="1" parent="1">
          <mxGeometry x="80" y="470" width="120" height="60" as="geometry" />
        </mxCell>
        <mxCell id="bgZHBFGTuroAZLbvqYEN-11" value="" style="shape=image;verticalLabelPosition=bottom;labelBackgroundColor=#ffffff;verticalAlign=top;aspect=fixed;imageAspect=0;image=data:image/png,iVBORw0KGgoAAAANSUhEUgAAA1oAAAFmCAYAAAB0hethAAAgAElEQVR4Aey939N0V5Xf5z8rd7nmIhVuUtxRJFVwgUilgDAlzA9XIukCG8FUGKGKI02VCFiAwBCEPLZU4LEEjGagxASmJMYCNMj2SMbKvBA8vFB2qlOfxt+e9Sztc7qfp/vpn59d1drn7B9rrf3Za++zV59+Xv29hUkCEpCABCQgAQlIQAISkIAEdkrg7+1UmsIkIAEJSEACEpCABCQgAQlIYGGgpRNIQAISkIAEJCABCUhAAhLYMQEDrR0DVZwEJCABCUhAAhKQgAQkIAEDLX1AAhKQgAQkIAEJSEACEpDAjgkYaO0YqOIkIAEJSEACEpCABCQgAQkYaOkDEpCABCQgAQlIQAISkIAEdkzAQGvHQBUnAQlIQAISkIAEJCABCUjAQEsfkIAEJCABCUhAAhKQgAQksGMCBlo7Bqo4CUhAAhKQgAQkIAEJSEACVwKt//Sf/7/FL3/1m8Ubd37t58IYMO/M/1z6xd8uFt/78WLxL15YLP7Z9/xUBjCBDYxMEpCABCQgAQlIQAISWAVaHLIJsDhw/8e//a2fC2OQAHsq2CKAIJj42c8Xi//0n104nQBMYAMjg61Ox3sJSEACEpCABCRweQRWgRYHbYOsyw4w4wOjZcDbGgIJ0zwBGMHKJAEJSEACEpCABCRw2QRWgRZvs3yTddmBFvOPH4wSb2p8kzUic7UMRrAySUACEpCABCQgAQlcNgEDrQv7ieC6YHoq0OLvkUybEZDVZpxsJQEJSEACEpCABM6ZgIGWgdaVN5kGWtsvdwOt7RkqQQISkIAEJCABCZw6AQMtAy0DrR2vYgOtHQNVnAQkIAEJSEACEjhBAgZaBloGWjteuAZaOwaqOAlIQAISkIAEJHCCBAy0DLQMtHa8cA20dgxUcRKQgAQkIAEJSOAECRhoGWgZaO144Rpo7Rio4iQgAQlIQAISkMAJEjDQMtAy0NrxwjXQ2jFQxUlAAhKQgAQkIIETJGCgZaBloLXjhWugtWOgipOABCQgAQlIQAInSMBAy0DLQGvHC9dAa8dAFScBCUhAAhKQgAROkICBloGWgdaOF66B1o6BKk4CEpCABCQgAQmcIAEDrSMKtN74m18t/vfHnlz8u9f+5krw8x/3aKP/w+LtV7GB1vYMlSABCUhAAhKQgAROncDBAi0Cij/57ktXAgrKvvrPvn2lLEEGbVNH/u4PfPJNny4vffedEzD9b//4y4sX//LV5Vi4/4ef+vybxotdqRuNJ2X0pd0+xnHoQOvOL361+PADj7xpbmHx6GefWq237//g5cVTzzy/uq8XyPj4Q19YkB8iGWgdgro6JSABCUhAAhKQwHEROEigxRsbgiqCB/IEFD2nLsHFY5//F6vAhUArQVfqua+BFkHO//qPHlu9HULn37///1jpqm2RQfv3feShVT1t65ul9O/l9MXOKg9ZBFpVXx8b9/SBQQ3KMp7kkXUpgVZdHp/70jOLV3722qro7t3fLoMtAqgEWpQRVI349jLa0f62k4HWbRNWvgQkIAEJSEACEjh+AgcJtP75N767Cpp6kJIAgyAkdfXATDBEYFLLct2DnQRaCZJST9Dy+a/8y9VbIoI05BLUVP21DBnII3iqASDtY2f69vuUj3Js4Y1VxjDKL+mNVpbM6K3UKNBK+5qP+tb627420LptwsqXgAQkIAEJSEACx09g74EWAcsXvvIvl2+LCCDmgowENARI/Q3WKGipZQRNCbTm3golgKpBVuSgM0FO2mELwVaCNtrWwCr1tOd6FDhRlvH4Rmu8SHhjVdnlp4D8fLC+0aJ3b1v71Wva7SMZaO2DsjokIAEJSEACEpDAcRPYe6CV4CNvi2qQkgCn5gQiacObrJ/+1euTP8mLTPrXQIugpwdH0YE9CaZSlrzLIHCjrAZTtI190YMuriNnLveN1psXCG+uHnr0K6ufDfLzQX5G6ButN7OyRAISkIAEJCABCUjgOAnsPdAi6OBtDsFKgpT/5R89duXtRd5CEAD9+V/85MrfThFM8bM/gpsawFSZlNcgifsEeD0Imgu0CJYSXNXrBEexIYEWOrGDe9pHZ8ZTc99oTS8I3jwRaPHmisQ/ekHZKNAiCHv/Rz499J/Km2va1b/5mrZguxrfaG3Hz94SkIAEJCABCUjgHAjsPdAiGCFY4uBLEEMwxZsqghJ+UvjSv/43y0Dl+z/48bKcoCaBE+24nwpgKE/w1QOtlBPgoDtBEn2u+0Yr9jAO+ifQohz7EmhF51yeoK0HBfV+yr45uTetO/S/Opi3WV9+8tlV8MS/QkjQNQq0+iKkHT8vpH9+KkgZMnLf++z63kBr10SVJwEJSEACEpCABE6PwN4DrRoA8NaHIIJ/UbAGFrmuAUaCq+u80UpgVnVyXd9O1evejqAsNozaUc8bMtokyKuBVg0qM6bkeaPVdR76/tCBFm+cvvncC8uVRGDF32YlQFoXaNH3/gc/swrK8q8RJlDb1/I00NoXafVIQAISkIAEJCCB4yVwkECLoIUAhaCDIIWfAhKojN5ofelrv3uzQfsETgm6ErQkT7BDsEIgU99a5Zq6HjTRlgCOwCiBDrJqWe9Du/o2Krp7oEUQGZnJ0ZdAK9fkyODDeKq9XEd+ZNxWfuhAqy4V3kzV/3dWrSP4qv8fLdp96IFHlj85JCAjJVCbklHl7fLaQGuXNJUlAQlIQAISkIAETpPA3gMtAob8nRQBRAINykeBFoELQQVBUA20EogkMCE4ITDK27HoSECCngRk5D1wqXKo7/1HgRay0y/yrhNo1TEl0Iq95OgkECXfV7B1DIFWfuo3FyAl0MrfaHGfnw2+9K9/tvx7rPSnjjn1b7ROc5PSaglIQAISkIAEJHCKBPYeaCWQSPBAYNKDDIIKDsYJpuiToOSPv/V/XwmY0qbLiJ595z3QIvhjLP2DvdW2BGzr2tU+t3F9DIEWAVJ9W1UXFnVhRABVU4Kuff2Piavueu0brUrDawlIQAISkIAEJHCZBA4WaO06SDjWQGvdTwd3zWFbeccQaJ36UjTQOvUZ1H4JSEACEpCABCSwPYGzCbS2DTDs/9vlGzYDre0XlYHW9gyVIAEJSEACEpCABE6dgIHW3/4uwDDQMtDa1WI20NoVSeVIQAISkIAEJCCB0yVgoGWgdeVvxXyjtf1iNtDanqESJCABCUhAAhKQwKkTMNAy0DLQ2vEqNtDaMVDFSUACEpCABCQggRMkYKBloGWgteOFa6C1Y6CKk4AEJCABCUhAAidIwEDLQMtAa8cL10Brx0AVJwEJSEACEpCABE6QgIGWgZaB1o4XroHWjoEqTgISkIAEJCABCZwgAQMtAy0DrR0vXAOtHQNVnAQkIAEJSEACEjhBAgZaBloGWjteuAZaOwaqOAlIQAISkIAEJHCCBAy0DLQMtHa8cA20dgxUcRKQgAQkIAEJSOAECRhoGWgZaO144Rpo7Rio4iQgAQlIQAISkMAJEjDQMtAy0NrxwjXQ2jFQxUlAAhKQgAQkIIETJHAl0Hrjzq8XfmSgD+gD+oA+oA/oA/qAPqAP6AP6wHY+cCXQ+o++3bnydkcev5WHa0If0Af0AX1AH9AH9AF9QB+4gQ8YaN0AmgGYAZg+oA/oA/qAPqAP6AP6gD6gD8z5gIGWgZbfUOgD+oA+oA/oA/qAPqAP6AP6wI59wEBrx0Dnolrr/NZDH9AH9AF9QB/QB/QBfUAfuAwfMNAy0PLbC31AH9AH9AF9QB/QB/QBfUAf2LEPGGjtGKjfUFzGNxTOs/OsD+gD+oA+oA/oA/qAPjDnAwZaBlp+e6EP6AP6gD6gD+gD+oA+oA/oAzv2AQOtHQOdi2qt81sPfUAf0Af0AX1AH9AH9AF94DJ8wEDLQMtvL/QBfUAf0Af0AX1AH9AH9AF9YMc+YKC1Y6B+Q3EZ31A4z86zPqAP6AP6gD6gD+gD+sCcD5xdoPX7f/Do4r/6r/+bBfncwGtd7fPvXntj8d+/632Lv/8P/uHi//mb/3djGVWe1y66Y/WB+Ddr5L/97/6Hxf/5T76yXC9f+sofvcnXWReUf+f57y/bkHOftUWOjBd/9JM39U2ftIVHyjZdW9VW+h4rU+1yvZ+6D7Cu67rsa5u1SD05Y61rk72kf9hX2Bv6/nHqnLT/8tY6z7f/6X/+Byvf51zIWqjPJPy8PgvTpq4LzpUv/einy/NlLc81MvSv8/Svswq0eDjEaafyPExYPCwM2tUFkvJ6QNT5z9P5L2le68GIDZ97HgY5UGW9xO/zoKDtU//8j5frhJz7+sDIeuossxbrw6jaUMvTN2svtszlU3ojy9w1qw9s7gPf+OM/WT4H8yzMvsCarOuyHwZpl/2kHjbThzLWOmt5tOado83nSFb7Z5XnIP6btRF/jt/XNqPnJ8+9rJMEWvX5FXl9bTnf+5/v22J+FoFWDnBZCB1WNv3RZl8fDvRjQUwd8Ori6Dq8P59FcW5zWf1/yrdT/sA//IPVN3c8ALhPoPWlr/7z5Td5yMvDIf3Is/6yHnkQ/eM/fHxyPaVv+sXOPKxG8xDZrkXX28g/LLu5X2T98UxkDWZd1uvOl7ocOOuztMrKXkHe+3t/8/mS3f7Y4du8peX5A3fueX7h0/Hv+txK8JW1kXVioLW/OTum9XHygVY29Dg5Th/nBnQWQR4aHf7o4RBZaRsZtE2Z+WUumHOYd/w7D4mp8WRdJRiqOUEOAVjWWdpmfWS99HU0pSvlkVN1TV0baLn+4jfmN/eFfHExtc5G5azrrPFRPWXsDzxz2RPSlty5uvlcye7w7NatlzwTDbQOP1fHtF5OPtCqMKcWwehQls2/Pije8a73rn6Lm0PfdQ+L1R6vXWyH9oH4cfXzddd1vXBQSvsclCIzX15kLZHnAUMf1k69j5yed7lzay5rvNp4aMbqd52fgw+sW6tZpxlr9oGsV/aK7AmpM9BybcRfTjGvzz/8fOr5k7XTA636rKMub7Rqea7RdYqMtHn9Gj+rQCsTzoLAebPpp7znWRy1XRZW/piXb+Y41HmwW+9Mna/3x8Msvs66yMEo85P10jf6lCfPA6HmHL7olzXEfeq7nuibynM4S/+53PV4PL41NZ+Wn8Yc1fWdPYCyrGnmMc9F1mQCrvTLfd0H6txnT0i7Wuf1afjIJc9T/Bd/v26glcCLvjXQqs+vyM/au2TW5zr2swm0sgDmDmfUxfGZ0Dh4yn/6V/9uGVDRhjoeNCwQPvWhc67O4LjO86FXA5hs8Dk4ZT3kPvX4P3Wrv88q37Yh739830eXa4J+rI/aL2uQ8hrgpbzn6ML3Yif9pnwx6zz6ptpZfp6+7LzuZ17XPfNY1+wNda1mD2F9s6brffYZ528/8yfn3XHGl/FpfD3Pn/4My338PM+93NOX67zRqs+vyGe9OG+7m7djYnnygVacNI5eHbiCzgKJ4+eefgRRPDTIuWdR1ENfdLgQznMRVD85t+v4btZH8npAypjrw+Hpb3x79WYqfZKzDtKWn9uybrI2WDe8DWadjXRE1yjPmoueuXxqnY/kWua61QfGPnCdNZf1OLf2WPO0Y9+R+Zi5XE6LS56h9XnG8w4/Jx/5fJ6POW/SpgZaWUs1zzNU/zgt/9hkvk4+0Mog88CYeggksIrjs3g4IOaPdulfF0zkUZa+U7Jjg/n5LZBzndP4dzb6kW/nYZJDU10fcEl91lRYZb3UtRM9ozzy07/m0Uley712rekDt+MDWXNZq1MHwL6HpP0o73uEc3c7cyfX3XNNoMUzkg/Ptzz7qMt6yTX3U4HW6BcikT+1zpzT3c/pvplebKDFYvns419ZLhgCrhf+/MXlW60cOPMQGS2afU+S+k5/oR16DvMwyCEofj5lVx4UtGd95I1v7ZcHBG2QH1mjQGt00KoPK/pyX3VFJjl6eVPGNe2qHdFr7jrRB7bzgaxJ1mt+5sT6Zq1vwpb1eZ32m8i0zXZzKr/t+PXnXJ6NPKs4J1af55q189O/+uvlM4q1kA/lPLf6+oh81p5ztd1cHSu/swu04tRTeT/w5XDHgqmTVAOtWu71eS6ES53XHKyyXvpmn4dI6nPgysOB4Kc/PEaBVvqPcmSlzyjQytx0W7hPnbnrUh+4uQ/kecf6rF9i5FBJ+SbrLWs0+4RzcvM5kd1xsMuzLv4fH8+zMvf8T79ZO3z++rU3lnk9b+ZZW9cXc5xy18xxzPdtrLuzC7S6EwdaDnLV8ePk+WaC+7TLgVDnP1/nj2+ce56NPD5d8zwswuAnr/zbZfCShwtt06aW1TVDXx42WVtZQ5TlOnXRQx67kBvZlNXDXbWVa2Smnp/9Ir/K9Nr1qg9s7gM1wGJtTbHLOmYN8oz94+f+dPVNfV+jU/d9z5jSZfnm8yer22fFGsmzBt/Hv3lehX1dQ70ubZKzxuibZ1jWytS5Nf3Mb3+eb5Px2QRatwlJ2aft5M6f86cP6AP6gD6gD+gD+oA+sG8fMND6W51u306nPn1OH9AH9AF9QB/QB/QBfeDcfcBAy0Br9Qr83J3d8bmh6wP6gD6gD+gD+oA+oA/sywcMtAy0DLT0AX1AH9AH9AF9QB/QB/QBfWDHPmCgtWOg+4qQ1eO3MfqAPqAP6AP6gD6gD+gD+sDx+oCBloGW317oA/qAPqAP6AP6gD6gD+gD+sCOfcBAa8dA/VbheL9VcG6cG31AH9AH9AF9QB/QB/SBffmAgZaBlt9e6AP6gD6gD+gD+oA+oA/oA/rAjn3AQGvHQPcVIavHb2P0AX1AH9AH9AF9QB/QB/SB4/WBK4HWG3d+vfAjA31AH9AH9AF9QB/QB/QBfUAf0Ae284ErgdbCJAEJSEACEpCABCQgAQlIQAJbEzDQ2hqhAiQgAQlIQAISkIAEJCABCVwlYKB1lYd3EpCABCQgAQlIQAISkIAEtiZgoLU1QgVIQAISkIAEJCABCUhAAhK4SsBA6yoP7yQgAQlIQAISkIAEJCABCWxNwEBra4QKkIAEJCABCUhAAhKQgAQkcJWAgdZVHt5JQAISkIAEJCABCUhAAhLYmoCB1tYIFSABCUhAAhKQgAQkIAEJSOAqAQOtqzy8k4AEJCABCUhAAhKQgAQksDUBA62tESpAApdJ4Ktff3rxqYcfO8jg0Yt+kwQkIAEJSEACEjhWAgZaxzoz2iWBHRIgMPnofZ9Y3L37m8X3Xvjh4mMPPry85/qmaReBFvZgy+NPfG1lX7cH26l/3733L+7c+eWy+hCBFrqx4SevvHrFxG5LZV0bUv6Wt75j+ZkKEtHxrns+ONluExnRObID29/29ves5HOd8TAX+EhspP9cGsmnfR9DfGxT+evazTGYq5uyi/Hjg3yYl7SbmqM5JtZJQAISkIAEKoGzDLRe+dlri/sf/Mzizi9+VcfqtQQukgAHRw7Q5CQOvhxI+eQQfBMwuwy0nv7Gc8uDLofsnrCT+joGyqYOwhyca1CGvLn2Xd/U/Wi8VRf1BCnoSlAbWdSlLAf5EftHH/viKvDp7TaVMWcHOmNHbEuO3XxIXXfakM/Jp98oGKXfpvLn2s0xmKubsyuBFsE8MkgpG/njssEZ/QfeGfepDyt+yxcIz377z960D5z6+LT/8ATqnn94a7azIGeBKoU1xJ4wtffRp+8X+XJs9Eyrsi/1eieBFo7HxnYskA20LtWdHfeIQD80ZnOth/pRv3VlbLZsyNskNmjeJBBIYc8ooYP6uvlz3Tf79B09COfap99cPvUgGTGAbw1mRn1H/Ub6Y/dNZHQ7kJ+5n9JFfVJ0577nI/mMa2pekLeJ/Kl2cwzm6rB7zq6sDwKt2MdhgzkkP/e0bp5Pafx1XY32gVMai7YeJ4Fz86u+37IHUjaVqGedZc/NLyB6nr10Ss4llW8VaOXbI77B5HMsYA20LsmFHes6AjlIsjGOEuuWn6vVQyUbbTZb6rOJ1nb1UEObGlwgq77ZwIb6k7W5vYK277zn3tWbnZHN2JafG2JbfgJXbaX89//gD5d2xf60i+3ISR1lpDxAck/ZiCHtCBKpq2nEoh/ae5vaP9fZX2nL9XVljHQwpoyXnDZJdYwjfWmXvMsPD+YlOqpPTMnvvKfajWyKDa+9/vNJPnd+8cvlPE3ZlfHUfKSr1p/TNWug+nodW+am+kmYU3dsibFUW4/NPu05fQLsTzzb2CPOITEO1g3Psuzbo/w7f/rClWdpzgL9C1vX4Ju9YqtAK+JGm3HqDpEbaB2CujqPlcC6g1Ffv2y8CZK4/vwTT66GVg9lHM64J3UdXUYNEmrdSnC54EG2SaCVoImu2BFbRg/CajftE3DkUIZNPDi4D496+Oz9kdHHnCH08pE9vU36Jo8Nc2NaJ2NdfefMfQ2Ga5AUu2re5YdhbM4YwnFK/qbt5ji+9KMfv+nwE/sIwpjbKbvqmHK9zkfT7hzykW9nXJkbWCaFK3XHlhhLtfXY7NOe0ycw2odOf1S/GwFjI+CaW9usr+zp9GKvZN3Rh/Jady5cth3HWQRad+/+dvHxh76wePcHPrn6fPiBR1Z/o8XfanGf+qeeeX7JjYDs/R/59Kr8+z94eVXO33h987kXVnXIR89con90VP3oe/SzTy0/qY8N2BZdsaX2ndNnnQTWEdj0ocDmmIM11zmUIj+HrXzLlbrarh++6kGVuvSt+TYHImyoG3rVPxpzb19tD0PKqsyU17GkjLzLTF21hTL610CTst4mfcmxn4Cn2nJdGet0RF/GkDmuOqnjM5X6GEac0oa3SjBYJ3/OjjkGc2+0qMsXBxlL7ELfVBr50VTbUy5njkdvh+FNgJo1y/XjX/y7t5WUM5984itpW+d5ik38PH2YE1Ivrz44ZWv8JrLwtR58V7mMhW/iq+wpOy2/bALdt/Ax/If1QerrJL5f/Y0+1b/Zj/g5fPXXub0IPfRP+6p/bv1hW3TlS7T0reNCNvf1Fxr9TVW8gLborPbErpq7tkJssTiLQCtBTIZFEJNgJUFWApu0oZzgiZyUgIfgKwEYcpO6jpQnp/8//fqzuV0GVdFJToCVQI622Md9rmsgR/t6vxLqhQRuQIANMUHUVPdsyC++9PKVzZYNtb45yqaOnHrddUQeD5teN2XDdcrZxNGfVHWgk4cLNiT19tX2qTYpH7Ud6Uj7agtllUXajGRSR988CNP2ujLSr9uR8pqHy2g86/r3+v6gRk/a9ENvrasHjDk7RgFTOM4xnrOr6q5cRvJq/Tld4wN1jXPPhwQf9g7mMSlzGnbMAQestIEdPpz79Ks584zO3oby+jY7+tFBmrM19ZFZfanblPuMs9rmtQQqgboeKMcXs0fHj+Kf6Uc564acRJ4ve+L71fe6jshJTv+5X5ZMrT/6YWt9/mNrv2fNxK4aLOW67g+0pbyOGfvrfew2/x2Bkw+0aoCUSa0/HSSYGQUt9e1T3jIlGKr9q8yHHv3K7Fut/mYtgRqBU64jjzI+I/spq0Fg+phL4CYE2EDX/RwAuWyW7/29+65swvUBkE2bMhIba67RUQ9I1GVzTr8cgDg88Q16Dmp9TF1Wr+cevXVjR3YeHvTfJNCKfcirOuvhLtexPbbUsacsebUlZbU9PPLQpT6Mp3Stk5F+lQd9Rnb89Wv/PuKW9WEwktHt2kQ+bTIPVWa9jgEj+XPt6DfHcV3dyK7Y0nPmiPbk557m1lLmo/p/96vKPawo4zOVRn1oOyqv+uZspT/1sbXuA1VGbBrpSp25BCDQ92rK1vkVbfC3BCk1p7z2D2XK1j2jsxYjD18njfyYMj4j+/veRrusmdhD3t9o0Y+gLUEW/WLLKKfe9DsCFx1ojQIwsIwCramALY5E0MRP/+hLqsFVvU57Aq+pQGukP/3MJXBdApts4sikHQfvuummjI2UTbb+3IaNNJs9/bnOhku7GkxUOTncT42DtjVoG7VDV93IsbkfpLEl9lHPfXTTlwcbfWJzxp0HGm2wpQdtqU/7bl+1JXXp03VRj4186oMs7cgzhikZKa88kDuygzaRHRaxsevvejeRn/FER2RQvqn8qXbIyFgjv87BXN2cXdT1hA0GWr9Z8a6cu1/hF3WeYcl995fKeNSH+lF51dfl1rroja117fZ2U7qqjV5LgH2gPscgss6vaDPyt9Cs/VM21542rIu6X9d1Uq8jL+tknf2RjX76ZF8d5egh0TbXfZ9kD0YO5aa/I3DygVbeItU3Rlz3nw4SKJF4W/Sd7/7F6id7KUfOl598dvnGikCHoIlAiBQduV8Wtv+gMzagA/25p18NwpD/oQceWQZlvS1iq6ymxlsJXJtA3wyvLeAMO4weTqNh5oFV69Y9FGtbr0+TAIehdd8wn+bI3mx19/Hq3wleKUuq9ZSxluohEHbrvijpbbjnZ8u9PPpzsJuzFVuoj63IypckXGNj6tgT+eKI9iYJTBGI/1U/4RrfwYfiR9WvvvWd776pHDn5FUd8MT4dHbkf2YLO2BCduZ9bf70tsqss7ukf+6vu/kYrdbSNraxZ1jqBGePmy6mRrPS91PzkAy0mLsFKfgJIwFT/h8UJnKhPAEa/Wt4DIfp/7kvPrP5xiwRNU45SZaGDvulDoMXPDnmDFhsT4GE7urA5dVNv2qZ0Wy6BdQTYXPPGZ13bS6jnQZEH1dR4eUj1bzNpS788aKb6Wn66BHI4uZQ57v7MQanuFXDgINUPl5RRx2fq7fCcF6An35xXfbU8OiJnna3U56BXAy36V7n97Xzkm0ugE8h+EF8lYEoAT9sETtRnjfTy/kUE/QlkIhO/nUtdR/9lydT6yzMMm6NrtNaq3bFjk0ArbbNHoKPKT/2l5zsJtM4NIkFTDdS2HR+BVoKuLiuBFjpNEpDAfgjwYFj3cNuPJWqRwGkTONW11IO2054FrT8VAv0LgG3tnlt/CbTQ2RNv0lgDtOnBZIKymn/pq/9sGURRxpcW9E09NiQlKMwXHim/5NxAazD7BloDKPta89EAACAASURBVBZJQAISkIAEGoG5g15rerDb+tMtjOAwuO7njQczVsVnTeBYAq2zhnxkgzPQGkzIXKDF26n8xC/5up/6+UZrANkiCUhAAhI4eQJzgVb91jvfflN2iJRv2mOH37gfYhbUORdosZbin8nX/RRvbv3NvdFyJvZHwEBrf6zVJAEJSEACEpCABCQgAQlcCAEDrQuZaIcpAQlIQAISkIAEJCABCeyPgIHW/lirSQISkIAEJCABCUhAAhK4EAIGWhcy0Q5TAhKQgAQkIAEJSEACEtgfAQOt/bFWkwQkIAEJSEACEpCABCRwIQQMtC5koh2mBCQgAQlIQAISkIAEJLA/AgZa+2OtJglIQAISkIAEJCABCUjgQggYaF3IRDtMCUhAAhKQgAQkIAEJSGB/BK4EWm/c+fXCjwz0AX1AH9AH9AF9QB/QB/QBfUAf2M4HrgRa+4vv1CQBCUhAAhKQgAQkIAEJSOB8CRhone/cOjIJSEACEpCABCQgAQlI4EAEDLQOBF61EpCABCQgAQlIQAISkMD5EjDQOt+5dWQSkIAEJCABCUhAAhKQwIEIGGgdCLxqJSABCUhAAhKQgAQkIIHzJWCgdb5z68gkIAEJSEACEpCABCQggQMRMNA6EHjVSkACEpCABCQgAQlIQALnS8BA63zn1pFJQAISkIAEJCABCUhAAgciYKB1IPCqlYAEJCABCUhAAhKQgATOl4CB1vnOrSOTwK0S+OrXn1586uHHblWHwiUgAQlIQAISkMCpEjDQOtWZ024JXIMAAdFH7/vE4u7d3yy+98IPFx978OHlPdc3TbsItLAHWx5/4msr+7o92E79++69f3Hnzi+X1X0MlL/rng8usMkkAQlIQAISkIAEjoGAgdYxzMI1bbh797eLjz/0hcW7P/DJxbee/+Hi/gc/s3jlZ69dU4rNL4UAQQhBVg1SCF74HEug9fQ3nlsGXARePWEn9evG8JNXXp2U0WV6LwEJ/I4A6+tcvqDIFy5ve/t7Fs9++8+ufDnjfEvgVAnkC0mecTXx/J5au5Rv8nxHJuvlLW99x5UPZXzBWcvZK0jIreVT19E/OmvM2Y6ORx/74qKPl/v6hWtlcczXWwdaTGYg841yDnPHPOhTt+37P3h5GWgRcN35xa8MtE59Qm/ZfjYn3holiGGDY+MbbWTXMYW1n433Ov1q2zxACKSwZ5TQQT353Bh6QDmSZZkEJHCVAOtq6rB2teXx39U96VQPZcdPWQv3TSDPSXy6rtcarPTnPGuhBjo5p9ecYIp+pPQnuEq/Ok7q84yueus1OrOXVP2jZzPjGOmJzpxP0DsKBBnHqcQcWwVaFTxwAJufJwWW+e4JPPXM8ws+JglsQiAbaIKU3ofNrm9YbIJ8SNRnc67tWO+1TV37bKx884RuUt8s5zZY2r7znntXfZcCNvjPaDPfoJtNJHDRBFjDORx1EOwZrOu6Xrmua733OeQ9Y6m2HtIWdUtgFwTw5zx/yVmrefZSl/usyd6eZ3Zfw9WurPGqg+v6rKc9z+UaaPX2o/u6FrmmP3JHbaPzz3/w4pXAijXNs508Z5hTe9ZvFWjVycpEnOJrvT6OY7830Dr2GTou+9jgsgmPLMtGm02xBklcf/6JJ1fd6qEsmz2VXUeXgX7KSLVuJbhcbBNo1eCuiPRSAhKYIFDXdG/S9wbq+1rvfQ55z1iyjx3SDnVLYJcEWIf8KoVnY034Os/hUaproV73tpGdX5Ugr/9Unz410OoyeKajA1mbpASHc23zRittMtbY21mk3THmOw20gDd3oLstAI9+9qnFl598dvV3S+//yKev/M0SP7Xj75n4fPiBR5Y/t4st9E0df/fEz/FItbzLq3VczyX+dor+0YEtJH7yhy0pr7oJpJBb9aRfLaP/z/7N61d+Olj/fgvZcOFvuNBnujwCbEabfPlR1y7XbJpJbGys63wLlbrarh++ajBFXfrWnPJdp03Hu2u9ypPAqRJgPecfo2F95udErOH67TPXj3/x6t9ssAdkH0BO1jdl6xJrtf4kKPtBL89+g7wpW/sexX710o9+fGXvq3IZCwe5KnudvdZfJoEpnwuN+nzDr1g3SfTNmqhn41qe9TbqE/+swUXVF9nJo6Ou3azPtKk58iObPYB72ifQIu/tq+xaN7pmbPytJHnYsA7zpwzIig0Zf/IEWtSPZKcs+0b6HWO+s0CLwXaH2deACT5qMJQgBf0EGP/068+uTKEuP7vjugY4aVT7U0aQkwCN61Gf9K15gqwESalLkFXLq07sI0hKPfdVJ/cZA7LqP4ZR5aCP+9ge/eaXRYC1mQ14auRseARkL7708pVvzth067rOpo2cet11RB6baq+bsmHb8qpzW1n2l8ClEOAgU9c493xICWBYw0l9PbMPcOhJG9Yhh6rcp1/NE/T0NpTXnw1HPzpIc7amPjKRlS+Zuk25zzirbV5LoBKY8zn8aOoXH/QbPXcpr36HvyYI4XrUJ+uAdZa1UG3kGn9PAEOb9/7efYtvfee7S13IJJAieElCF+2q7JShB5sItKIP+bU/5bQfpWoL9ehgzPCiX4Kkntex077uS/Q91V+s7CTQAkgcZQT9tssIJhJ4oKsHQ/0tD+17gBIbR+Xpj9wESZsEL9iErp66fdQTlOXNU+9X62hLfcZb7a3X0dn7ptz8cgj0TW9q5KxjNue+2VFO6ocTNszUoaMekKjLJpl+2ZTZdNn0yUepyxq1GZWhB9vJTRKQwGYEWMOs1yTWafaAHMKydmlT67mv+0BkUFZlpjz5qM+UrKpvzlb6Ux9b2UcSaFUZ62xIvbkEILDO57JGEjTQnmfQKCgYlac/Pko9Z+l6nqYc2XmeTs1KnvOvvf7zpc08Y7MWsClBFzrQmZ8i1uvIpg17QA20UpecNZwxj/LsIbRHR7ikPzl6KKc+qY6XL36RM5K/CZPIPHS+VaAFHCDMbaj7GOBcoEVAUt92JYgZBSXYOiqvgVbGk7dV9U1T6pJHV+6TG2iFhPk+CGQDrpvZSC/t2MyzOdMmZWxqbP715zb9sMSGmQ2RdvVBU+Vs8sCoQdvI1lFZHg7kJglIYDMCrNv6DGf955CUZ3zdE2o9Gvo+QFmX2S0Z9ZmSVfV1ubUuemMre46BVifv/XUJzPkcflyfZ/FrnkH1+Redo/LRGsvzsq7DBEapy7O25rTnJ7MEKNjCWkB++sY+yhkXKfqrHK553vdAKzLpV68zvuTYmLdr0YG+n77y6lJu15X7ypIzBHJI1V7uKa9v15aNjvg/WwVaDD6OcMgxzgVa1OWtEkEUb6JyX+uw/5vPvbD8G61eTmCUN1gv/eufrf7+a93bIuo/9MAjV9rTP3YgN6nq7AFa10M9H1INDBMQZnzUcx3bo8v8sghcSgDSN/fLmmVHK4GbEZg7SOYQxrM+qT/3OXDVAxLrcN0XJb0N9xwOe3n0o4M0Z2vqYyuyEmhxjY2pY0/kIJnDZsZmLoFOYM7nqIsPdZ+qdcgkaMGfezk+mTdYWQO0r/5LvwRL3b7c074GNwmE+vMf/fXcPpKdPj3Qom/WEPITII3yroO+yK2Je8qxoacaaPF2jvULJ/RnXfc+x3q/VaA1Al033H0NmmAigQc66xujvHnib54IOD73pWdWgVYCk/yDFAl8enkNVHpd+kyNlfrIr2+/ql3U1+DopoEWNiSIi07/MYypmbms8r65ntvo2bDZhHMgO7fxOR4J3BYB9oa6bjjI1ENSnvM5DGatcbiijg8HPPrkwJXD2JzNtEn7qq+WR0fkrLOV+uiuB1X6V7mMhYMc7U0SmCMw53MJ4PHT7lMED6M10cuzrrCh18WXKb9poFXt5xqbsl6R23VmTWIXgVbWSLeBdR/7Or8e9CEDuZGV9psGWiM26D+VtFWgdSqDvGQ7a9B5yRwcuwQkIAEJ7J4AB55+gNq9lt1LxOZTOqztnoAST4FAgjkCH/7+qgZvCYqS1y8s8G3eBBFUkdOmBkZc82Lkpb/88ZuCOAIgZPWf+lH2J8+/sPqCJHrn8q//0TdXP/ND51xb7Kn/SmHV31/iML4apB7zXBpoHfPs3MA2fv7I2zJS3r7Vt303EGkXCUhAAhKQwJDAKQRafBvPYZOcxOF13c8bh4O1UAISkMA1CRhoXRPYqDmBTH6ql7z+THDU57bKElzFjvqTxNvSqVwJSEACErhMAnOBVn4yVL/FPtTbr7wZiC312/3LnDlHLQEJ7IOAgdY+KKtDAhKQgAQkIAEJSEACErgoAgZaFzXdDlYCEpCABCQgAQlIQAIS2AcBA619UFaHBCQgAQlIQAISkIAEJHBRBAy0Lmq6HawEJCABCUhAAhKQgAQksA8CBlr7oKwOCUhAAhKQgAQkIAEJSOCiCBhoXdR0O1gJSEACEpCABCQgAQlIYB8EDLT2QVkdEpCABCQgAQlIQAISkMBFETDQuqjpdrASkIAEJCABCUhAAhKQwD4IXAm03rjz64UfGegD+oA+oA/oA/qAPqAP6AP6gD6wnQ9cCbT2EdmpQwISkIAEJCABCUhAAhKQwLkTMNA69xl2fBKQgAQkIAEJSEACEpDA3gkYaO0duQolIAEJSEACEpCABCQggXMnYKB17jPs+CQgAQlIQAISkIAEJCCBvRMw0No7chVKQAISkIAEJCABCUhAAudOwEDr3GfY8UlAAhKQgAQkIAEJSEACeydgoLV35CqUgAQkIAEJSEACEpCABM6dgIHWuc+w45OABCQgAQlIQAISkIAE9k7AQGvvyFUoAQlIQAISkIAEJCABCZw7AQOtc59hxyeBWyLw1a8/vfjUw4/dkvR5sehFv0kCEpCABCQgAQkcKwEDrWOdGe2SwA4JEJh89L5PLO7e/c3iey/8cPGxBx9e3nN907SLQAt7sOXxJ762sq/bg+3Uv+/e+xd37vxyWX2IQAvd2PCTV169YmK3pbJOQ8YJ/7e89R3LTw0Sex3959JIPu2x7133fHClo84tfaI7fnBdHVVGlT2SM2VjlbENA3SOdEzJrzb2fnP8mWv8k0/s7f2rbK8lIAEJSEAClcBZBlqv/Oy1xf0PfmZx5xe/qmP1WgIXSYADOIfrBCkckjks8ll3YJ4DtstA6+lvPLc8zHLo7Qk7qa9joCwH396ew3ENyqifa9/7T92Pxlt1UU8wg64ezFDGh9QDNvplHnLoH41tTn6XWcdAv9gzJz99GNPb3v6eVR/Kq43YSkAXf0q/tJtiUO2gLzIy7s6n1lX5uZ6yMePs8tf1ix2dD3ryRQD2k2hDGXXnkGCfsZ36eDLv+O+z3/6zN+0Dpz4+7T88AXyMNcM+0FP2j3ypRc7ewif7P31Yb5Ex2kuoz5400kFf7KiJ9tn/arnXhyewdaCVBx4OdSyTbKB1eMfSguMhkMNiHgzZ9B997ItbHRbzsNhmpDm0EkhhzyjxUKE+DybacD11OGS8uw608gDtD78Rg/7A44HY34TRb8r+kczKpcunbp28qmtOfuZj7g3jaDzVPq67jSN+1Q7ms7Kdm9+RjevkY9OoX7eb+2pX1g48un31fiTnVMrmWJ/KGGJnn7u+D6SduQRuSmBdoMV6ShCEP7JP8KGcRJ5r7rPHsD+Rsk9RPkrURwdya1BXr4/lPD4aw6WVbRVoVYdj8plYHOvQyUDr0DOg/mMi0DfybhubdX9DUR8GdTOv7eqhhjZ1Y++HcWzgW+Y8CGg/lWj7znvunQ0CsS/BADKRTb9qK+W//wd/uLQretMutiMnddm7RnvZiOHUA3EdC8Yd/Z3BSHdv0+XHDnhkLH0uuGdO0pbxjFLs6jpq27m6tOtt0B0bRm0q3962+iJ9Rzb2PrTrNoz6xZbkm/CnLTYh/xwSY4HNKIVHHWvnOup3qLJzmpdDMVTvVQL4VPbVuZx1wXqJD/LFIeuKcj6Up+6qht/taezf9RnZdbF//snzL1yxBfnsnfVLyrqXdj3eH4bAVoFWNzkPsl6+73sDrX0TV98xE1h3MOqHKQ6teQPD9eefeHI1PB4UOZTV9d51dBn1kF3rVoLLBQ+KTQKtBE10zUOMa/r3b7Kr3bTBdh5k2E3CpvxcLTwyTup7f8r6mJeCBuWRhwxSv08/ctrAijZTqeuN7V1+7E99Htw1WK46qtx6TZvYjIx19tG+9x/NSW1DfT1kVB2MK2Orfer1Ovm1bb2u4+d6E/5pF75dxqndM+apsWTeYZY0xy9tDpUzlmrroexQ73kRqGuE/ZT77NHV5yjL/SjQ2oRK+k+1jQ7sSGL94veU1Wdt6s0PS2BngdZoQ97X0O7e/e3i4w99YfHuD3xy9fnwA4+s/kaLv9XiPvVPPfP80jQCsvd/5NOr8u//4OVVOX/j9c3nXljVIR89UynB3ee+9MyyT2Q9+tmnJmX0uv/rj769HEf0ZFyxd0q35RKYIjA6gI7aslHncMs1m31S1nYO6qmr7frhiw0/wRp16VvzbQ5E2ID+pKp/NObevtoeGZRVmSmvY0kZeZeZumpLypBBgMP4CSj49jIcaZP6Wpa+Pe/yR/bVNsischlj5jqyu4zaP22Sw3ddINz7I78fANLmzi9+V1fZd5vRPWfjnPzXXv/5yheRE734dRL9mZ/KKXWjPGsCWaeeGPPo7XCYZM3C5/Ev/t1bU8qzZjJfaVvncooPflSD67Ds5XVOpmzNfEQ/vvbSj3585QuXKpexcBCusqfstFwCEMBX8FHWBdfZc+K3tMEP0y6B1tSbKnzwXz33p8tnQvZjZMUn8df6piqzEB3sa/SLz/e8fhGZvuaHIbB1oIVjZIKrw+1zOAQsfJIITBJoJcjqwQrlBE/5BzPICa4ImBKAVZldR3QlT5+qh+t+H5nkPXirNiA3wVtsjC5zCVyHAOsyG/lUPx4aBEYvvvTylT/058BUN2zu8yCo111H5PGw6HVTNlynHBvqYa7qQOcmb7QyjujtMlNex5mykY7UVVtS1nN00Y6ErHWBS+3f5fPg7X9QnTY9yIi+zocxZh+veZ37asMUq7SJfmwjVX9Im3Adsez96TNn45//4MUrwVTax846plxnbNflj+zIzVhOOWcsYZGxUUZi/tg7mI+kPjeZl7RhrjlE5j79ag5zdPY2fS6iHx2kOVtTH5nVr7pNuc84q21eSyAE8KXsF+tyfP711//D0kfpl0CLaz74Gn7MdU34InX4OvmUnvhq1gT66Euqvl5le30cBLYOtOowcIQ4Qy2/zesenKCrBii8WeoBDW0ozxuumlNe+8d2yh569CuTb7V6n7yNqrK5xpbX//3frIK6yE9eAzqua6CWNuYSuA4BNmEO4mzQc4m1+97fu+9KUFbXdD+c8NDIeu8HJOpyeEu/PGCwg2/5puzpskY2ozeHL+qRnWBy9NDp7at99K868yCjTa5je2yhLmNPWfJqS8pq3uu7bbUtdV1P70977Mn4YzNlpC6jtu110V11II929aFeA8ORjNo/MiszZOWNZ7e32zyST5uuY0p+9Cfv/ZAfVmmzLqcPcs4h9fFXPpmbOtZaz/gr9/CgbI7pqM+UrKpvzlb613mp+0CVUW2kvUkCmxLIs4z9j3+gqafslfgb9fg513zwNXyyv6VCJnX0rWnUFnkEYgRZP33l1dWvJEbBWQ3Eqlyv909gp4FW3dj2NZRtAq1RAIbdPWiibCpgyzh7nwRa9OtpZHPaRM4rr7525Y1b6s0lcF0CrMtNAi3a9W+ZU5bNnYdEDif9sER5Nnza5SCNvVVOArCpcdC2HuRH7dCF/qR6kMrhEFtiK/XcRzd9YUJwEptpQ0p/2mBLf/uT+rSPDcmrLSlDVvQkIKq6Upc8bbA/Y4iskXzqaJf+tU/sTV1kp09tO6Wjzh9y6tjp32WMbOx2VBk5wMTGKm8kHzu7jjn5GVfv1/tEf2VU++Yam6r9KT/FnLGsW0t1rJ07fet8waDL7FxGfWgzKq/6utxaF72xta7d3m5KV7fTewmEAD6UAAc/zM9t2UN6om2eNdRxnzVCzn1SAi1+TUKf7EE9T+CEPmTQj8Sa4ZOE7HqfcvPDEdgq0OoTyuTHmfY1pAQ0+UkeernuPx1MwEOQ853v/sXyJ4O0STlyvvzks8s3VgQ7/O1W3iZFR+5HY0uAhPwk2tdgDl3RV99c0Z6/B0NPdN338c9c+TlkZJpL4LoE2JA5OGZjvm7/c2w/OtCNxsl+1h9a7HvrDuIjWZadBwEOOv2nmqc8su7j1b8TiFKWVOspY33UQ+UmX5T0Ntxz0Ozl0Z81OGcrtlAfW5GVL0m4xsbUsRdycKW9SQJzBLqvcI/f4Jvxq/gnciinnjdO+bIRv4uv0T/ltK/yqh3I7m+/qnz6oYs2BGU8k771ne/6bKoQj+R6q0CLMeA8ibwPdfgguKn/2AUBU/0fFidw4qd7CcCwvZYTWHGfcvrnH7agXw3klo3af0aBFk3ol58PVhkJqFKXAIw+XFd7mipvJXBtAqzTQ63Paxu7hw48GPPgm1LXH4hpR7/6YE25+WUQOLe11P15FEjxjM836qwLriljHfCZejs85xHoGZ0danl0RM46W6mnP6kGWtxXudhf385HvrkEKgF8Jn6f8lFgxBpIu6wJ2idYQk7WCNeU86uNl/7yx8vncvfz2jd6kyeQw46kuiaRhQ7T8RDYOtA6nqHszpKpoGl3GpQkAQkckgAPQw5lJglIYDsCp7qWetC2HQV7XwqBUaCVsRPgjJ4rrJH61re2p45Eni8eRjmBXP1XCutPDRPkRS42+MVqaBw+N9AazIGB1gCKRRKQgAQkIIFG4BQCLd4C1H+AJ28UyE0SkIAEbpOAgdaA7lygxd9d5ed+yevfYQ3EWSQBCUhAAhI4SwJzgRbfrPdv50ff+O8DDEFV/ccG/HnVPqirQwISMNDSByQgAQlIQAISkIAEJCABCeyYgIHWjoEqTgISkIAEJCABCUhAAhKQgIGWPiABCUhAAhKQgAQkIAEJSGDHBAy0dgxUcRKQgAQkIAEJSEACEpCABAy09AEJSEACEpCABCQgAQlIQAI7JmCgtWOgipOABCQgAQlIQAISkIAEJGCgpQ9IQAISkIAEJCABCUhAAhLYMQEDrR0DVZwEJCABCUhAAhKQgAQkIIErgdYbd3698CMDfUAf0Af0AX1AH9AH9AF9QB/QB7bzgSuBlnGnBCQgAQlIQAISkIAEJCABCWxPwEBre4ZKkIAEJCABCUhAAhKQgAQkcIWAgdYVHN5IQAISkIAEJCABCUhAAhLYnoCB1vYMlSABCUhAAhKQgAQkIAEJSOAKAQOtKzi8kYAEJCABCUhAAhKQgAQksD0BA63tGSpBAhKQgAQkIAEJSEACEpDAFQIGWldweCMBCUhAAhKQgAQkIAEJSGB7AgZa2zNUggQkIAEJSEACEpCABCQggSsEDLSu4PBGAhKQgAQkIAEJSEACEpDA9gQMtLZnqAQJXCSBr3796cWnHn7sIGNHL/pNEpCABCQgAQlI4FgJGGgd68xolwR2SIDA5KP3fWJx9+5vFt974YeLjz348PKe65umXQRa2IMtjz/xtZV93R5sp/59996/uHPnl8vqQwRa6MaGn7zy6hUTuy2VdW1I+Vve+o7lZypIRMe77vngZLtNZETnyA5sf9vb37OSz3XGw1zgI7GR/nNpJJ/2fQzxsU3lr2s3x2CuLmPpdjN+fJAP8xL7p+YocswlIAEJSEAC6whcfKD16GefWjz1zPPrOFkvgZMlwMGRAzQ5iYMvh00+OQTfZHC7DLSe/sZzy4Muh+yesJP6OgbKpg7CHJxrUIa8ufZd39T9aLxVF/UEKehKUBtZ1KUsB/kR+0cf++Iq8OntNpUxZwc6Y0dsS47dfEhdd9qQz8mn3ygYpd+m8ufazTGYq4v9zBfBZWWQQItgHhmklI38MbLOJYd3xn3qY4rfMsfPfvvP3rQPnPr4tP+0CMytrdEew35DH/x4lOjDM6KnOT29rff7J7CzQAsHYHMbHR72P6zNNRpobc7KlqdJoG/orFE25nqov8nIOJwhZ5vEg4U3CQRSowcIstFBPXkOvlxPHQ4Z764DLfRyOO/724hBD2ZGfUf9RhwzzpvI6HYgP3M/pauOL7pHbSOrBiyUMa6peUHeJvKn2s0xmKuL/bQZvT3N+iDQin0cdBjb1IEnMs8hXzfPpzTGuq5G+8ApjUVbT5/AurXV98vsRexVo0R9npPIzq8Pej61B49kWnb7BHYWaGXS86C6fdN3o8FAazcclXK8BNZt3qxZfq5WD5WsZz4k6rOR13b1UEObeuhGVn2zgQ18ERM5c/sEbd95z72rNzsjstiWnxsiE9n0q7ZS/vt/8IdLu6I37WJ79i3q83DKoT336B8xzMGduppGLPqhvbep/XMNQ3jTluvryhjpYExhQU6bpDrGkb60S97lhwfzEh3VJ6bkd95T7UY2xYbXXv/5Wj6Z8/RB71Qa6Zpqe+rlrIHq63U8mZvqJ5vwqzL2ec1Yqq371K0uCXQCc2uLtqwv2hA8Zc8c5dm7UlefY9XfaTe1lrtt3u+PwE4CLSaabwp5qNZJ398wbq7JQOvm7Ox5GgRYk/XA263uhykOmQmSuP78E0+uutQHRzZ/KruOLqMGCbVuJbhccNDeJNDKw4au2MWHRP91b7SwnYdW9itsSlATHvWBVccdU/uYp8pH9kz1jYzYMDemdTLW1XfO3MM0D/M5n8HOLj8MY3PGEI5T8jdtN8fxpR/9+E1zXu2bug7vnq/z0d7+lO9Hvp3xZG7gl1RZpuxYcsZSbT0Wu7TjMgnMra1OhD2nPid7PffsgXmjxT3rEx30xe+5Nh0fga0DrTyQXnzp5YMFWgRLX37y2cXHH/rC4t0f+OTy8/0fvLyk/crPXlvc/+BnFnd+8avl/d27v122S/1c3+ObLi2SwPUIjA6nIwkchnOw5rpu2Dls5QCeKI7JAgAAIABJREFUutquH76yL6CfuvSt+TYHImzIAZ7xVP2jMff21fbwoKzKTHkdS8rIu8zUVVsoo39/gPY26UuO/QQ81ZbrykDOnI7oyxgyx1UndXymUpc/4pQ2d37xOwbr5M/ZMcdg7o0WdfniYFMutBv50RSLUy5njkdvh+HNlw9Zs1w//sW/e1tJOfPJJ76StnWep9jEz9MHXyH18uqDU7bGbyKL9daD7yqXsXBgrbKn7LT8sgl0n8PHqq/WL/Xih6mf60sdsrJWuE8/ynJd6ePD+G315fh8zfMsr329PhyBrQKt6lT1et/DIVh6/0c+vSCoIpF/6IFHlvkmgdZU332PQ30SuA0CbNjrNt4ckvnChLfTbOQkNvz65oh7Hgipy3XXEXnI6XXLzlv+B715QCGq6kBnffhR39vXccSU3iblo7YjHWlfbaGsskibkUzq6MshkD41XUdG+nU7Ul7zjHk0nnX9ez3PgOo76EmbfuitdfRLmrOjB0z0Ccc5PrSph5BcV7+O/uQjeak7txwfqCy450MaPdczp5m38KWcBDt8OPfLwvYf5hmdvQ3l9W129KODNGdr6iOz+lK3KfcZZzPPWwmsCHSfqz5afYwO8df44Fxf2tMO344/Zm/qeeShj3VT/Zb+9X5luBdHQ2CrQKtOcHewfY5w9PM/ynhrtUmg1f/VwfTd5xjUJYHbIsDmzAE4B6MpPWzW7/29+64EZZRlE8/DIPd1/deHD/Kpy+Et/fKwwA6+QZ+yp8sa2YsN6EhCdoJJ+m8SaMU+ZFSd2cuQn+vYHn117ClLXm1JWW0Pj/qGJYyndK2TkX6VB31Gdvz1a/8+4pb1YTCS0e3aRD5tMg9VZr2OASP5c+3oN8dxri46yUdcaj3XzBHjID/3NLeWMh/V/zu/yj2sKOMzlUZ9aDsqr/rmbKU/9bG17gNVRmwa6UqduQRCoPsc5fGz6mOU9/Uy15f2+OVonVAWP65yCcCiuwdj9Z42puMhcONAK4enOrm53vck90Cr/jzwuoFW7Xs806QlErg5AR4GmwRatOPgXTf4lLG2+89t+kGFdZ89gJ831GCiysnhfmpEtK3fao/aoas+oOpBKg87bMleRD330U1fmHCYjs0Zd/rTBlt60Jb6tO/2VVtSlz5dF/XYyGdqT80YpmSkvPJA7sgO2sSGsIiNXX/Xu4n8jCc6IoPyTeVPtUNGxhr5dQ7m6jJG8hGXWs81Nhho/WbFu3Lu/PCLOs/w4777S2U86kP9qLzq63JrXfTG1rp2e7spXdVGryUAge5z2WfwqepjtK116/pSjwx8nk/2tFGe9YW+/I0WuvovCPKzQmSbjofAjQOtPoTuYL3+Nu8JtD78wCOrv8PiTVbu+dssrvM3WeT8HVfu5/reps3KlsC+CFzSoXFTpqMD3ahvf8jSZnRoG/W17HQJcKDZ5MuJ0x3h31nefbz69+i5XuuRwlqqQTvs1n1R0ttwz8+We3n0o4M0Z2vqsY+ErHxJwjU2pi7BfA6wyw7+RwIDAvhI/Tk3PpT7+FH8ipxAKfdzfVFFu/h2VU1ZZNRy/DiBVn5KjT7a97VR+3l9WAJnE2h97kvPLAMqgqj6N1fg5aeB+UcyHnr0K2/6xzDm+h52etQugd0QYBPOT7p2I/G0peTBNDcKHqL1rVza+kALifPMc3gaHYDOccTdnzng1b0CDhzm+uEyBzzqp94Oz/FCDzL4VH21PDoiZ52t1OeAWgMt+le5/e185JtLoBPApwhu8Bn8sX6pQNusD+qyDuKDc30T/Hd5kRkZ1Z4aaKW8+zX7l+m4COws0DrksPpPBw9pi7olIIHjJ8DDkYegSQIS2I7Aqa4l1j+2myQwR+C2/CQ/88tbWwK1qQ828KEen+WTtpQnXdqXRBn3secGWsc+Q9onAQlIQAISOFICpxBocZit/wAPbwbW/bzxSHFr1p4J3FagtedhqO6ABAy0Dghf1RKQgAQkIIFTJjAXaOVb+Hz7Tl6/gd/nuPNTrdgy+mnWPu1R12kQMNA6jXk6ZivPItA6ZsDaJgEJSEACEpCABCQgAQlcHgEDrcubc0csAQlIQAISkIAEJCABCdwyAQOtWwaseAlIQAISkIAEJCABCUjg8ggYaF3enDtiCUhAAhKQgAQkIAEJSOCWCRho3TJgxUtAAhKQgAQkIAEJSEACl0fAQOvy5twRS0ACEpCABCQgAQlIQAK3TMBA65YBK14CEpCABCQgAQlIQAISuDwCBlqXN+eOWAISkIAEJCABCUhAAhK4ZQJXAq037vx64UcG+oA+oA/oA/qAPqAP6AP6gD6gD2znA1cCrVsO6hQvAQlIQAISkIAEJCABCUjgIggYaF3ENDtICUhAAhKQgAQkIAEJSGCfBAy09klbXRKQgAQkIAEJSEACEpDARRAw0LqIaXaQEpCABCQgAQlIQAISkMA+CRho7ZO2uiQgAQlIQAISkIAEJCCBiyBgoHUR0+wgJSABCUhAAhKQgAQkIIF9EjDQ2idtdUlAAhKQgAQkIAEJSEACF0HAQOsiptlBSkACEpCABCQgAQlIQAL7JGCgtU/a6pLAiRC4c+eXi/fde//iJ6+8urT4Uw8/tvjq158+EesPYyasYAa7fSTmg3kh7Vv3PsZXdZyi/9X5qWPxWgISkIAELoeAgdblzLUjvWACHFQ/et8nFnfv/mbxvRd+uPjYgw8v77kepU0DLdq9654PLt7y1ne86XNbgRlBBfbzGelgjNQ9/sTXVmMejXHXZZsGO+vsW1cfu+tBflPd9KlzNTX/0XEs+a4CrXW+M6of+XjW0hyfOj9z7ayTgAQkIIHzJWCgdb5z68gksCTAQZGDITmJwzUHVz5TB23aXveNFrI2OYBuOy05DBNIzQVaT3/juWXAReCyj7RpsJNAasq+dfUZSz3Ir9ONTOamzg9l+ED8InIPncfWKd/cxr51vjOq72sB/dj2tre/Z/XGdxub7CsBCUhAAudLwEDrfOfWkUlgSSCHRw6wJA6JHLAffeyLkwfFfrik/SioqYgPEWiNDuOMkzdaBDKMcV9pXbATO9bZt64+cq4TaNG2BlmRcYw548fW0dxua2/WAkH6SP6ovq+F2LAvf48+cwlIQAISOD0CBlqnN2daLIFrEcjhkQPsXCKYqj8rq9/YU5ef4qVNP6j2gycHVH5WWNslGPmrn/3b5RszgiH0IJO29EmiX3RVW1Jfc9r2/rWe69gTmTXwIBAhOKMscrA1tnX9tQ556M/YMoZRm27Tde67PPQyL6Tohmcf36aBCwzSN2NCNuPh7Wadq84OO6r/9DkPxyo3dte6P372+SX/2JG5QDb2JVVddW7W2Zr+NY/ttaxeRyaMa6rl4U9gnzFiL7JpxzgqkyrHawlIQAISOF8CZxlovfKz1xb3P/iZxZ1f/OrkZg6bsZ0xmCSwCwIc8OrBeCSTQ2FtQ596gOXAWO85WL7znnuvvBEb6clhMzqRQ1kOn1VntQH5BD4JDnOQpd8ooTuH8lF99NEuqR6w0V3Hh14Cy+iv48AW2lZZyKw2oo+xxV7y+lPM2LBp3u1P8MQYohubck9Zxpe23d6qu7KPvMxvdGeuch959E1wQd8qi7ZTHKY4juxlLMglZVzLm//yhjZzH9umbE2fmnd5tY5rZI7mrtqZscRG+nGN7H69LDjh/5zauOITrI9nv/1ny7mkzCSBmxCo+/xN+q/r8/knnlzuOeyvrDV8lX2EnGci+nvKr1OyD+WLqppnT+x9sz6yn/d6dPe62Nbb5j725J78trlVXcd2vXWgxSTUycyD5ZADNdA6JH11HxOBTTa3emCM7Wy+9XDJuq6HSNr1DZjNt2/mVc7UddWZQzm66r7CdQ2E0mfTfGRbZVMPj1Vm3d8ytqm2VR76uv3cU36TNLK/2lF1Rz5lPJjhju1Tukfzj4zMeZ23yE4d99UO7qstcxx6v8ge2RN9I1tq+1F9+kb+dfORTGTU8jrmyK/jo57A9RxSHVe9PtaxVRtH83SsdmvXcRK4bR9iX2HP+tZ3vrv86XueiSlnv+spgQ22cd0T5fnikmuepaPnUy3L8xa9sSFysW/qeUKbas+Urnw5FpnnnG8VaNUH3DFBMtA6ptnQlkMTGB3Sq02jdVwPkbTth9VRnyk96Us916Qun7L6AKuHo2WHLf8zsm1OH+1rYFT7T9lW5dX2W5q+7D6SV+2ouqOv9qltU598NJfUZd5Gc5U62nXZ1ZZqQ/Ql7/1SPrIn+ka21Paj+vSN/OvmI5nIqGOrY478Pj7sOIdUx1Wvj3VscGeuTBLYBYHRWt+FXGSw1xCA1ICHawIdfmHRy7/+R9+8EjQRTE0FNshgr8T+GoyxNtbtTbShz8i22ETdn//gxSv6kcuYyNGdMfbAbVf8jlXO1oHW1KvMQw7YQOuQ9NV9bATYWPNt1pRtbITZiGnDASrfaHFPff0Gio233tOGsiojutBPOW/IaEPKAwW5SVznnj756Vra85OKqTSyp7aNvuinrurrB0buM5Yc5HPfbeP+xZdevhIodn3IqD9FrLZtco0O5iP2R37lRT12k2Jz7nv7tKE/dXW81NUxUl/fblJPv8gmjx3pS3v6RW/srhyqjvSDY2xPn64PXVUf7eKL62xFVk9dXq8fyURnXR+MJWNO/86ljidtTjGv46rXxzoW5vdc2B8r40uya7TWdz1+dBDYEMTgu30fZd3xSapvkGoQlfqaRzbrIkHSKK/ya/+uu9blOvbknjHQj739GGOG2Hlb+VaBViY/k5SDyG0ZOyX37t3fLj7+0BcW7/7AJ1efDz/wyOpvtPi7J+5T/9Qzzy9FEZC9/yOfXpV//wcvr8r5O6lvPvfCqg756JlLXd6jn31q1RydDz36laWdsW1kl3+jtULmxY4IsLGuC7RyuM1aZqOsh2s2Zco40NKmHjJjJpvpaA+I7FqXw2v9lq7WIxN5sScH6ejqOW3XtYEDdkcmY0riIVDv695GH+ys9lXbUo78etiu+ka8opt8kzmqOhkr8xGbo5uy0fjQkXlIfbcJWaO6zBU6kmibB3FnF1voR+I+3LvOOqZwpA8ysSVzWvX1caQN/dbZujSo/QfZfKZS9YXwqbbSr4+Zss4Fu481Mf6Mrc9Rnb+0Ca+MsfanrKZa17nVdlx3XfjHqDz6qeM66xP7Yn/3E3S/9KMfT67RvqaWiv3PxRPofoSP9T2H+6yN+P+cL/OcGP3DRcDG5/FVfjqIX+PftCWPbK6zNujDvo8+Plwn9XaU1zZcz50NqGc9Zby1Pfsi8kf7WuyhPlxGeR1DbD7HfKtAqwMBKp99JwKaHtT0YCbBVWwjoCF4IifVACcBU5XZdUROcvp86IFHVv+IRYK/6CUnqKNd9GFj6iOn2pEycwlsQ4ANkY2b/BApD6q6qWJLDeQOYdcx6YRNHqLHZJe2nD+B/tzGF3OwYp1ynbWbtZznPD7LASr1vT3t1gVXIZxDXWTV8vp2OzZkvaAjwRV9+ni4j0x05MuQbmvuaW+SQAh0f8Lv+vqIL6YPvlSfudzneRc/r34WHdQlUMJnkUvOBxn8qgP/pz33SdyzDgnMWAujoCbrNDqQU98uRVdkJq/6aDMlu65z7Klrso4/ci8p32mgVTexfUEcBSYEM/lXB3lLNXobRXnecNWc8to/46CMN1JTb7UImGpgRr+qu9fXuuggH42n1nstgZsQYOOrG+FNZNy0Dw+JPJgi49I33nBInm8Ac28ugX0QGK3DBDI54PV9g8MW+wmpXsdeyviMZKfNKB/JmtKBbbELW+ibVOsoo54yUj2j9HbUT9mw7Ox/Lo7AyIfX+RCQ8K1RQEJ57R+glNU3S7TLGkubBEa83Urb6ElQ0/tV348cdOV5MxeUZU3VQCsyyGGDfOqTqj38DJw1OuJAWWxO33POLzrQGgVgTPYo0JoKjOIcPZCivPbp9bUuMsgNtCoNr0+ZQA5sow119AA75bFquwROkcBoHWbdcmjik4Am46vBSL1OPYcvykey02aUj2TRblRe7Yq+yKx1lNXDZj3k9nZTuiLX/PIIjHx4nQ9BaeRboVf7pyzt+WnrKPihPnIJUnKf/gmcWCtc88VmD3BYB5FBu54o63Jpk0Drp6+8OpQbPfU5H3uiL7q5T6DX9Z/z/VaBFk6YaDabcwW6D3D5iV59m8R1/+kggQ2JQOY73/2LZU6blCPny08+u3xjRaDFz/wIjkjRkftlYfsPfdb9dLDaiB1Vf7XL/49Wg+utBCQgAQncCgGe2fW5zWErb6A5FHGAygGMZz51ac/hrB6waF9/5tdl8218zgx9ML0v9/lHZqrMnDVyWERHrpGJrTU4pD72IzM/HeR6bmzdPu8vj0B8Lf4OAa6zPrIe4l/c87dVvRw5/KyPPH4Xn42O3Fd/7r5Mm7lAi775ey7kJqGT4IeEDNqMgrEETeRZ18hBLmOqiXvKq57U10ArP2dEH+PJ+kvbS8i3DrTqZAH9EClBS34CSMCUnw5iTwIn6hOA9fL691N5o/W5Lz2z+nlhDZKmxkjQFhvIa2DW32h1/bGLsRhoTRG2XAISkIAEdkkgB70csnKIjA4OR7WOQ1Se9Rza+BlT/YlQDp3077JrXeTXvOqqwVItx5YcSumLLfWetrUv9dFbAy36VrmMu46t2uX15RJI0JQ1QOBQg4UETtTXtVPLE7RAMT6Ir0Vm1lMo48+po29+hodfv/b6z5d64tP0QRbBE3ZNvXlCB2NBRg+akIHOKjO20A9buo2bBlrI6ftAXa/Rc875VoHWuYJJoEXQY5KABCQgAQlI4PwJcJi8tEPg+c/qcY0wgdYo2ElwVoOaBCnVL1OW/49WviQgUBoFQMglGKO+yqlkKO+BVvrRjroEf6OcgPDZb//Z8k0Y9tSArwaayEJXDUqrHed4baA1mFUDrQEUiyQgAQlIQAJnQoDDan7OxZA4VNafKJ7JMB3GkRHAz+obsSMzT3NugYCB1gDqXKDFTwDrzwO5nvpHNQaiLZKABCQgAQlcLIH8FKl+K16/wd8nGA69fNseW/o3+vu0RV2XQcBA6zLmuY7SQKvS8FoCZ0jgr197Y/Hij/5q8Rcv/nTvH/Si3yQBCUhAAhKQgAQujYCB1qXNuOO9KAIEOYcIsLpOg62LcjsHKwEJSEACEpDAYrEw0NINJHDGBA71JqsHWthhkoAEJCABCUhAApdEwEDrkmbbsV4cAQOti5tyBywBCUhAAhKQwJEQMNA6konQDAncBgF/OngbVJUpAQlIQAISkIAE1hMw0FrPyBYSOGkCBFuHerOFXv8+66TdR+MlIAEJSEACErghAQOtG4KzmwQkIAEJSEACEpCABCQggSkCBlpTZCyXgAQkIAEJSEACEpCABCRwQwIGWjcEZzcJSEACEpCABCQgAQlIQAJTBAy0pshYLgEJSEACEpCABCQgAQlI4IYErgRab9z59cKPDPQBfUAf0Af0AX1AH9AH9AF9QB/YzgeuBFo3DNbsJgEJSEACEpCABCQgAQlIQAKFgIFWgeGlBCQgAQlIQAISkIAEJCCBXRAw0NoFRWVIQAISkIAEJCABCUhAAhIoBAy0CgwvJSABCUhAAhKQgAQkIAEJ7IKAgdYuKCpDAhKQgAQkIAEJSEACEpBAIWCgVWB4KQEJSEACEpCABCQgAQlIYBcEDLR2QVEZEpCABCQgAQlIQAISkIAECgEDrQLDSwlIQAISkIAEJCABCUhAArsgYKC1C4rKkIAEJHCLBO7c+eXifffev/jJK6/eopbjEP2phx9bfPXrTx+HMVohAQlIQAIS2IKAgdYW8OwqgVMhwOH1o/d9YnH37m8W33vhh4uPPfjw8p7rfST0ovPxJ762sqPrxUbqCSgILEjk77rng4u3vPUdy089gM/VrRsjAQv28Kkyu03Hct8DrXXjW1e/y3HBL/NDHj9Dx2hOq+5RPWWbzsm6cc7VowPfiq/FLvRnPFwn4cOMbVSXNjWfkl/beC0BCUhAAudNwEDrvOfX0UlgeZDkgJgDJYdPDpB8uL6NRCBTA6YEWk9/47llcMN9T9hDfbX10ce+uHqLk8AqNs/VrRtjAi0Cu00P9d3efd6PAq25OVw3/l3ajh1TDEdzWnWvq69tR9frxjmqp4xgiSC7+ijyGUcCxQRWtE9drlM3Gvec/NEYLJOABCQggfMlYKB1vnPryCSwJJCgIsENB0EOuDVQ2TWquUALvaOUQzd5bO3tqBsdbmlX69aNMUwItHJ47rqO6X4q0Jqaw3Xj3+XY4D7FkDqCZ/LRnK6rX2fnunHO1Y98lCCrjiX9R3bgh9g/lbr8qXaWS0ACEpDA+RIw0DrfuXVkElgSSFAxOugGUQ6NHBzz06ge0NS6t739Pas3TTlQcuin7+efeHIlg/upwyj93nnPvSs5sWUq72+0aru5utpu7nodA/hxEB/xqWwyXsYHJ9qHF3XhGnn1nrcs9CNVmVXG1BhoH91zbWI/85W/+4qtCTLIq835yWf6pl3GkPLRT/GmbJkqr4zWzclIxiYc6MeY6xutjCVjow3XecNVdaVt5q7W5brLT7m5BCQgAQlcDgEDrcuZa0d6oQSmDosVBwdGDss5ZPbApR9eaZdDdQ7p9dC5ySGTNpsGWjnYjgKJubo6xnXX6xjwZgabSXV8I76xKTyjm/uMARnv/b37Vj+l5J5Ai77YUg/49EvgE1k973PU67tM7qvMjIO57wFfbYedU/PWdXQbNrlnHMghkc/55UjeOg7pU+cwZfSt3Pv9VLuU17zLZ15PPTEfMDmGFN/IfMdnjsE2bZDAJgTYE+pemz74cn92pI4++Dz7dE3Zv89hn6njOofrnQRa2fB4INaH1L4BPfrZpxbv/sAnV5/v/+DlpQl3fvGrxYcfeGTx1DPPr0y6e/e3i48/9IUFfXJd+1JuksCpE+iHvanxsIb7AYoyPmzoefOR/mzmrHU295GOUVn6XjdHFgd9bOlprq63XXc/xyB9GW/e3iT4SFCawDNtkUfbajdt4UZO+be+893Vg5Z7PpVtZI3mIHWb5JvKxAe6zZTVMaCPstFBYFs7Izv6yKf8cpNxz7UZ+Wg4ZY55k5fgF1mMj3nuNo30dPnIPvU0mo9DjKn72chHD2GXOs+XAD6WfYE8+1/2hOxZEMg+Qp9c1751/2CfqHsM7UfBV8hST3/01udRlc/1Ic/isdX8dwS2DrSOYeNNoNSDo8996ZnFKz97bTlSgi6CLYIuEvcEWvRN/wRmua+B2e9w3d5/sfP+Bz+zsu/2NCn50giwGa/bdEfrmM2c8n6ogV8eHsjuB0rqR2U34Y78HsBEzlxd2lwnX8egHrBHTBgzwVdnDcf6YOaeACsPS/Tyyd9bVbaxf6QvdZvkm8qMrdiTRFm9H8lK223tRE7Vh17ua6r1tfy615v4KPozdtpPvckb6d5E/qjfMZeN5uMQ9sK2Hk4PYYM6L4NA9ru+D2W/hkJ/FnGf50D6U0bKffYVyrjmSx2eHz1gyj3y/uT5F67U04+1gC1Jro2QOJ58q0CLhyqTT37IRIDVg6yRPWmXN1w9sMo9fbneROZIz03KDLRuQs0+mxDYZONlw84bGmTSpx4qecjUB019sNC2/q1L+veybmvX0evzQMoDqtbP1dV217meY9BtrW1ffOnlJS90hcXrr/+H5T8CEf01OKAvbPNwpA8/Iay8aJ8HNTKqvsjseZ+jUf2czBwOXnv951feYCK3Brt17pmHuv93u7sNm9wjg/GS+rj7PIzkreOQPpmran/qyHt9tau243qks/fvfU7xnvlgrIdOsDXQOvQsXIb+0doejTzt2E/YL/PcGj2rqJtaR5Sn70gP8mhT9y3WJX0oO4Yz+cjuSy7bKtBiYtnsmNhE3XMOchugCZp4E5Q3V3M60vahR79yJYjKG6waaPE2ay7QSmDEWzN+cpi+9MlPEN//kU9fsYs+lKU+8umbMvKUz43FOglsSmCTQwkb9dxazsMi67wevEcHytp+6oFCvxrM9fHkgRWdyfOQwYaUJZ/ShWzq5vandQzoHz0ESfk5ZR0r9dFBnvY1wGHcBLVpl/7V9pSlf9XXOeWe/lVGypPPycSWGmjDInOMTPSHd23XZdZxRm/NaY+fwWAqoQ/9pHVzMpKxjkP6jPy2zlnGT/s+zsxLxjvSOZIf3ceUj8bcx1vnI2MNg/jx3Jjok/ZhRvtaXv0q7Pi7yPSjLanaSx331MXGLneTtbMU7H8k0AjwDMo+36redJu27G/xVRplLdV1gq/SJr6cNRFfph9rAN/tCXn05Qsx+mV99Lyupy7D+/0S2CrQwlnqZOIk9eG0j6EkeEqglaApgUsCoNhCAFV/Qkh5+qRtf+OVvjVP0FR/XkiAVIMk5EUX7T/0wCOrwCs60596fzpYCXu9KwKbfMuVjX9XOo9NTh5OsJhK586gjzuH2Tkm9OmH2C7nOvfoQh7zsUm6tDnZhMku2zAfo4PkFHfKE9xgB/c5JE7ZxXyP2lDOJ6meH/BNzhap575+KcM9B9r4Ee2whdRt4r6eU6LPXALrCPT1gb/V4AafrQlf62fg9ElbZNKm3uO/tCPvAVPusxYir+rZdC+vtnq9PwJbB1qZfEyOA8SB9jGMHmhFZwKZBE+UJ5jhLVQNiNI2wRl57ReZNY8s9JNGdkQuskZvyCjP34l1eVWX1xLYlgDrdHTYiVweEHUtp/xcch5Eo28H6/jOnQH7ct2bme9N5pw2sNlFQv91ZJ37nOyC6bYymN8aPCGP9UJw0veMPh/rDnj9oBpbR+X1/NDl1rrYNwq0ejvajnTFDnMJzBGY8p2Rn8Vnec7UfTVtEzD1tYYO2tOuJuT1Zxbrj/4EWT995dVlXuXW6xqIVble75/AVoEWD82RQ9WH+T6GRNCUN0PRV4McynJPu/7GKnXrgqvIJu+BkYFWpeP1qRHJUCckAAAgAElEQVToB6hTs38X9l4CgxyqeSD3Q/QUQ/rA5hDpEubkEFy7zhwG+5sfnuX4Sp7zfT5yuOSwOEpTB9VReWxAZ5db69BDvYHWiLhluyYw2v+6P+ae9YFv1zdWqZs6F9MeHfytL+uvBkv1OoET8mhPPxI6+SShp96n3PxwBLYKtLpDMcFxhn0OiaCHv32qwVYPnqjL2yNs4z4/6+ttN7G9B1r08aeDm5CzjQQkIAEJHAMBnuH8C5ikeiCkLAc5nusJyjnAJeiiTw+IRmOife3D313lsFjL6/mhy622Re8o0KIOmbGXe2zuAeTITsskMCKAL+I/NXjp/khd97mchXvbroN1hs/Srib09jda1NOO9vTjmjb54ox1W+2o8rw+HIGtAi3MjhMy0YfczBIs1Z//JbDiTVX/OWDaExzleps3WrCInNiQQC7TGztSPwoMqas/a0xfcwlIQAISkMCuCXBIzDfnCXw4xHFQ7M912qYNdvSAaGRbDprRQUBF6uU5mI7kpm36oncq0Erb6OMgOvo7tJGtlklgRKD7FL6VgAaf5D6+Sf+0TwBF21ofHWlH/xrIUb9JoBU5db12W9LG/HAEtg60Dme6miUgAQlIQAISkMA0gU2Cwene1kjg9ggQfCXAql94ECz1D19E/Kvn/nRZTuBWf2pYv6TAWgK8BIK3Z72SNyVgoLUpKdtJQAISkIAEJHDUBDi81rcHHDrrW7ijNl7jJCCBsyNgoLVmSvkZX37ql9yf9q2BZrUEJCABCVwMAd4a9T/kP+SfEhBY5Y2A3+xfjBs6UAkcJQEDraOcFo2SwO4I/PVrbyxe/NFfLf7ixZ/6kcGbfADfwEdMEpCABCQgAQnsloCB1m55Kk0CR0WAA7QBlgHmJj5gsHVUS1djJCABCUjgDAgYaJ3BJDoECUwR8E2WQdYmQRZt8BWTBCQgAQlIQAK7I2CgtTuWSpLA0REw0DLQMtA6umWpQRKQgAQkcCEEDLQuZKId5mUS8KeDBlqbBlr+dPAy9whHLQEJSEACt0fAQOv22CpZAkdBgAO0b7YMuKYCLnzDIOsolqpGSEACEpDAmREw0DqzCXU4EpCABCQgAQlIQAISkMDhCRhoHX4OtEACEpCABCQgAQlIQAISODMCBlpnNqEORwISkIAEJCABCUhAAhI4PAEDrcPPgRZIQAISkIAEJCABCUhAAmdG4Eqg9cadXy/8yEAf0Af0AX1AH9AH9AF9QB/QB/SB7XzgSqB1ZkGkw5GABCQgAQlIQAISkIAEJHAQAgZaB8GuUglIQAISkIAEJCABCUjgnAkYaJ3z7Do2CUhAAhKQgAQkIAEJSOAgBAy0DoJdpRKQgAQkIAEJSEACEpDAORMw0Drn2XVsEpCABCQgAQlIQAISkMBBCBhoHQS7SiUgAQlIQAISkIAEJCCBcyZgoHXOs+vYJCABCUhAAhKQgAQkIIGDEDDQOgh2lUpAAhKQgAQkIAEJSEAC50zAQOucZ9exSUACEpCABCQgAQlIQAIHIWCgdRDsKpWABC6RwJ07v1y87977Fz955dW9Dh996EW/SQISkIAEJCCB/RAw0NoPZ7VI4KAEPvXwY4uP3veJxd27v1l874UfLj724MPLe673kdCLzsef+NrKjq4XG6mvAcE6W9fVdx2Hvu+B1mjM1cbR+AiaYMnnq19/ujZfXo/qrxNorZurqfp1Y1lX/6aB7KBgytaInqrvtsLvbW9/z3LtpK+5BCQgAQlIYB0BA63FYvHoZ59aPPXM80tW9XodPOslcAoEONwTZOVtBod3DpJ8uL6N1A/2OdA+/Y3nlgEC9z1hD/XXsXUfY+l2bnM/CrT6mKv80fgSSBGUzgVaU/VV/uh63VxN1Y/mr8pfV1/b7up6ytbIn6of2Zq5SN9LzPE32BxDwpa3vPUdq71stBaOwU5tuGwCrJf4Zr0eUeH58K57Prj0a3w7ew7X9UObPM+R058rI9mUsd/xfK2y0JG1lPJ8KZtnDf2SuGYcVX/qyOnz6GNfrEXL63Vjf1OHMyrYKtACXCam5kzcKaUaXNXrUxqDtkpgikDfLLN5sxlSdxsJufXNVD3QjjZhbGA/Ieggz8a+ztZ19bcxtm1k9gfiaMxV/mh8mU8CKep7Wlff2/f7dXM1Vb9uLOvqux27uJ+yNbKn6ke2hit9LjVxIIPNodNoHeUwe2jb1C+BSoD1Et+s17VNrvFr2rDH0If9vT+nqaNNDXS4r2fwes2bePYuUu8bHeSxsdpAn1rH/bp9kPo84+fsir6lYWf+n60Crc4Gp0gk3OuO+d7g6phnR9u2JbBuY0Q+mx6bYt0Y+0ZY6+rmjXyCKjZXNvjPP/HklU2ffqNEv3fec+/qITBqc5OydWPhYVO/1cs4p8qxk/EytoybMfV+9Z6f9dGPVLlVGaOxxYbIGrW5SVnmiIcoH+aLoDbj6t+Qdh3s7eva9D7r7jPWGiwy7vhL6nNoCJNenvYZFwEofdK+23FTv6Mf84r+S011fg7JwLk4JH11X4dAfVas61eDHNbaKNCiDc8vchLyua9l0UNd9kfK+t7JPokOdGWfJUdW9jlyZOT5XtvV6+wNKcuzMuOITdzzuaS0s0CLyaiHi1OCaKB1SrOlrdclwEZaN85RfzY+NsgcetnEOVjnvm/YlOfgzaGHTbVunpTVN1ojnbS5rUBrbiwEGOgmVTuxvz6UqM+DKRwyDu7TFhnv/b37Vodw7nMgR2ZlT788gCKr5tFXWdb6m17XcWZuq13dzq6nznevu+l9xlrZ1jmo11UH3Gsf7mmbcWVeap96DYub+F1lWOVd0vXUnOybQV1j+9atPglch0D2p036ZA9LsMI+lzdarL2Uc00iz3X60of1wXOm7pNT+iOD/jyz6TuVaMNzg3wq0T9vtGjDPg8D+mDPuv15Su4pl+8s0DokQAKlz33pmcWHH3hk8fGHvrC4e/e3i+//4OXFuz/wyeXn/R/59OKVn722mqdalzajv9GiD31p02WshHkhgSMmwKa3LuDBfDbbvgHObcD1kDzSMSrbF6a5scQG9qs8tBL4YDPXNQAJG9oiN6k+cCj/1ne+u/qiKdwqo9pv3cMsbXeZ1/nA9m5DHc8u9c7JGvGpczeaD+wkwM/cJc+DvI9rTv9N6vCb7h83kXNMfepayJcnmZvwje9nfuCdOvqvS7V95VfLsw6RFX/lS5HooS2p2ksd99TFRtpUuRz6btsvlob5n7MkgC/hQ6yN+G71weq3AKh18d34ZvXT7G+0iQz2N9qw/uiDrARa6+BWedFL/5qQmbp1OWP9/T/4w2X7an9kxr4qn2vsiM2Ma0pPWPb+53i/k0ALpzjk2ywCLYKsO7/41XKOCJAeevQry4CLAu7vf/Azy3quP/TAI6vAiz707YEWwRpBG0GZSQKnTICNcd2mxqbJBl9THgqjg3kOYsjOoYh2SaOy1N12vm4sPDAz1tHYGBMPh7SJvdxTngcN9wRY5MhBL588ZCqjyBjpS91t5nU+RjbU+tu0o8oe8RnNXZ2Pke2ROVeXNtvkh2C0jb2b9J1iNpoH5FFe1wD36/YW1seoDeV8kpjnBHqw5pCWeu7rW0ju89aY/rTDFlK3ifscZKPLXAKbEsC34pf06b7HPYE8a6n7KWX0jW/GT0d7H7JpTxvq6cOa4L4HK/jzS3/54+W6St3UGks9cmqqtlHX69MWG7Al7SOv57QjwaCuXcroPyU/es4530mgBeDRJO8LXP/pH0FT3lQlzxsp6mhfU+1fryMnQVjt47UEToVAfzCM7GYjrIeR/sDoGzFrPg8f2uZBE9mjstQl7zpSvm0+N5aus7YlaOJhQsqeducXv1z+LVNsggN9SOQc/gisSMjmJ4SVBe3r3lj1LTu1/+QBHB2t+sa3dT7ywKwPvj6/XVGd7163zX3V2+0azQd8ah9056eg9N/kzUX3gU3tp1893G/a79jbwZNDE3OcxFjZD6rvUodf0j6p+lXKaj41J6Py+D52dLm1Dvl9LrAJ23o72o50VRu9lsAcgfhW2uBnPcjIs7OvD/rU/vU6csiT8FWeq5HPWuD5Uv8FWdqwLsl7on2V1+vRH9l5fqcNfVNHnrU/JRM91CVl7dEXPV1elZ026Xvu+daBVuBW4PuGVoMjdI+Cqdg0qqv963X6UEbA5tutEDE/JQL9UDKynU2TQySbazbEuqazzlNXN+l+KEJ+bc+mO0r0q99Sj9qMyrKJj+ooWzeW+rDhIZbDeX3I5cGJvPrAyMOHcuynXThlzHW8KQu3qm9kf9rPPSxH/bCh6u1t6hwxTsacfzQC2+q4el/ukV/nfNSmlzGWdb90CENsQD58Mo6p+QijMA2rjAuZc4n6m/gd/c4x0IJVmFa/pzy+nzmBda6ph0n9YqFzn5qTUXlsQGeXW+uit84FNmFbb0fbka5up/cSmCIQ30p9XwMpJx/V1f71Ov0oYy/D7/FV7vFjZFHGnkjOHk095XxI8ffshaO8rulRe2TzqX3r84C66Kxt+jV2k1i72Bz7+jOAOtpcUto60GLi4wCHAteDo9HPA//p159dmkewlLdbFNCW+7y1iix+OvjN515YDSnlqwIvJHAiBDZZo2yk2SiPeVg8KLCTMU2lUxnLlP03KWfMPBA3SbBLcLlJ+5u2QU8ODTeVcUz94HsKa+Q6zJgj3hyScghjnFNvE/va6gHRSDfMKjfeQGYd13L0Jpjvcqtt6KB+FGhRh8x6UMTmetgc2WiZBKYI4E/4UBK+V7+oYQ3xL+2S8OHqa7TlPv0jC39mHSSlvPo1fZCXwIRrgpvq2+lPjswe1GSdYWPaoCv30YHs2EgdbehLqnXLgv/yn/StZVwzhgRar73+8+WzBrtpn3H2Pud+v3WgxSRMTfy+4I2CoPoPXtS/38Imgqr8pJC/w+LvuXqgRbsqI//Ixr7GpB4J7JIAG9zcOs0muEudtyGrbuJT8k9lLFP2X7e8P0zX9edBuo9Aa+oBvc6+Y6zPgYkxnVtiveTbafYJEj5C0EN5PTj2tQWXuTdayMI/2XuiIwx7eYIs+nS5aZu+1E8FWmkbfRz69uHvS3D+5+wIjIID/DD+Vf2Wwdf1hN/jp5SRqqwqI89m2qUtOW0SaHHf12NgT+1PrGNkk5P62kAeOqotlMWeyK17QHTGvtwnp08CrZRV+Z1X2pxzvnWgdc5wHJsELoUAm2YOWac+5nMay23Mxb4CrduwXZkSuC4BDn7rgsHryrS9BG6DAAHKiy+9vAx0EtzwXCb4yfM5X4IQDP3J8y8s6xIYYVOCI/rw4XmYRKCFnAReCZYIhNKOOtrQNkHeKECL/OT04ROdyKt1sSH2R1/Kzzk30Drn2XVsEpCABCQggQsikG/oM+QcAHNvLgEJSGCfBAy09klbXRKQgAQkIIEzI9C/Reeb7Hwjf4ih5pt17Kjf9h/CFnVKQAKXTcBA67Ln39FLQAISkIAEJCABCUhAArdAwEDrFqAqUgISkIAEJCABCUhAAhK4bAIGWpc9/45eAhKQgAQkIAEJSEACErgFAgZatwBVkRKQgAQkIAEJSEACEpDAZRMw0Lrs+Xf0EpCABCQgAQlIQAISkMAtEDDQugWoipSABCQgAQlIQAISkIAELpuAgdZlz7+jl4AEJCABCUhAAhKQgARugYCB1i1AVaQEJCABCUhAAhKQgAQkcNkErgRab9z59cKPDPQBfUAf0Af0AX1AH9AH9AF9QB/YzgeuBFqXHXM6eglIQAISkIAEJCABCUhAArshYKC1G45KkYAEJCABCUhAAhKQgAQksCJgoLVC4YUEJCABCUhAAhKQgAQkIIHdEDDQ2g1HpUhAAhKQgAQkIAEJSEACElgRMNBaofBCAhKQgAQkIAEJSEACEpDAbggYaO2Go1IkIAEJSEACEpCABCQgAQmsCBhorVB4IQEJSEACEpCABCQgAQlIYDcEDLR2w1EpEpCABCQgAQlIQAISkIAEVgQMtFYovJCABCQgAQlIQAISkIAEJLAbAgZau+GoFAlIQAJrCdy588vF++69f/GTV15d23aXDdCHXvSbJCABCUhAAhLYDwEDrf1wVosEDkrgUw8/tvjofZ9Y3L37m8X3Xvjh4mMPPry853ofCb3ofPyJr63s6HqxkfoaEKyzdV1913Ho+x5ojcZcbRyNj6AJlny++vWna/Pl9aj+OoHWurmaql83lnX1bxrIDgqmbI3oqfpuK/ze9vb3LNdO+ppLQAISODQBnik82/0S7dAzMa3/rAOtRz/71OKpZ56fHv01a5CFzF2kXcrahT3KOF8CfSPm8M5Bkg/Xt5H6wT4H2qe/8dwyQOC+J+yhvj401tm6rr7rOPT9KNDqY642jsaXQIqgdC7Qmqqv8kfX6+Zqqn40f1X+uvradlfXU7ZG/lT9yNbMRfpeYo6/weYYEra85a3vWO1lo7VwDHZqw3kTYD9+9LEvLgfJfsLzC7/Mh32j7x19HdEfOTX1NrWuX7Mmp/wfuXxJFHumcmwkISttuKY89zVP+9gyZ0PakGNnlUO/biP2Upb9ecSm648O+iCzB560z5fNabuvfOtAq05C4OzL+HV69hlo3fnFrxYffuCRxbs/8Mnl5/s/eHnWPAOtWTxW7pAAmxRvP9iASKxZNqLR5r4rteisb6ayYRJU5KHUdWET9eSb2rqPsXQ7t7mfCrTqmKv80fgynwRS1Pe0rr637/fr5mqqfjR/Vfa6+tp2V9dTtkb+VP3I1nClz6Wm6xz+bpPRaB1NHTRv0w5lnzcB1nwPUvqeS5s809gb2DtyyP//2zmbVluOKgz/Wp1kJIIo4kid6TCO4sSRIuogAWcBE4mRQBCRXGLEkExyUSERweDoyLPJc3hPpXrvnd2n98e5b0Hf6qpatT7eWrWqV/e+B5+E3jgOWoxzWRjLxIN7EoKvv/SdB/204TvTaZwvD/QZ49aoI3qoJ/c+F2gX+o17K+mZM7Mhdcr5OVcZo47qAO9xDP15nqF/VtK+fXqdM+lalWhh6Nde+va9wQB4TuVnIGffuRItkyyTq88//9/dr1594456qTTRWkKm/Y+NwBioZvzZux4ABsgMjsxh3LF8qQJ/kiqCI+M//+Wr93S081BJ2WP8yLE194dsIRATp7RFO5f60dPDVruxaZyX7TwIEjdkymNmozrIa0ZzSp9rxEHtQypJrXZ5iC/x5sA6RLM0d6lfW+FtwW79xfFD6yS9dpGAMmcJw1P9jnn5wkKdX6Q61+eSdnctLon+iyubMy7jprHJuP7s/b/t4hcxDVr2C/dcxCmujHfGLMeJecY9+pyfiOP78D62jHsF/uiBbEvKgTdzlKMe0lKnHYxzNnCmcp/FsVFW4gYvZHkWiSV9FvQjridN8uAe+X94+937c50+5mmHvGifO46vTrRSYQzIt9gadqn6XInWhx99cvfyT3+zN7EaMWiiNSLS9lYIEOwOvQAhIBGYDJQERoKnbYIhlyUDKPueAAgPyzGxAJp8UePctfUhWzgokU1JPZmXNjKeh17qhf3SwuMb3/r+ffCmbVyEZ2LPPLBSfvJMeYnlSHNKO+10bVOvUc9RRq73OHZqe4ZtrkHepwxwRx8LbWi1y3VxfKzB4hS/SwxHni9Ke2lNzm0/a+EeO7fsyntxECCmEE+IVbMEBSTwRRMfaYhPs0RrRC5jmXysoZUfelhy3D6TI9rQEtudA/2+BMWExZiKTvapH/s++Xh20Jf7EHou9IaG+0MleUCPrH0FGnWd0c0wgydzRmxm87foW5VooVAajTGHQNrCCHiSVPmzvR+9/Itd0kMfX5ZoM/bN7/3kjqTIwhco54xjJEKO8ZNAvlplcgQf5iBj/KIlf+vUjXuKvHLML2LOa10E1iJAEDvm5Qf7dgyK7meCEzzgZTGQErxmMmZ9zt263meLstHbw8TEB5259xCRFn7QUlsyYNP/+7fe2R048KDNlRjlvBFLx7ascz1m65n2bKlH8p7hA2764Ww90JMXAK6dNXNmdqW8x7jHb0b/eAy+l+SRe8Gvlq6N+LIuFNcHvB1j/qGS9Ilf9rsP4aW/8lJEOdBSUl/GaDOmjtAkXx5CL7Hndsr2n5tHAP/Ct4gv+BU1yQU+SqHel2gtfYlhrz1//s9dPNHH99XuM+Whi33op/87LvC0Mxlib2uHNMyVl0mbfLRf2qV6jBnYgpws8Dwm6WMudK/99vXd/jdmoIs81S/5c699nzz/x15sM96MPB67/SiJVjqHi/XYiu7jR7JicpV09GcCRZuLMn6Fov2DH//sPqEyuUp+JkezxMqkbZxH/0w3EzmTK9ozupTf+yJwCgLsSQPV0nwCrQFMGtr0zx5gDarwJuCNydysT75b14ds4YDT1plt2DQ7JJhDvzGONgkWNXyQy+VBlRhp80yeY1vWuR4zHXJ8Sz2S9wyf2drlesx0l+e+MWnW1JfAaI2+x8xdwmy2DvCjP/cA7UOxhf0xo6Gfy8I6m+iBNQ9CjtPOr5C08+EROnRRx5RH/zkfqrSn9dNBQF9Nf9T/8MV9iRZ+zaWPcr+vJL8ZnePyhCbv8feUIb28TETY+5ac4/nlPHjlM773zOGyPdtjOde9rUxqMGGvco7OxqFBT+jUW3lj7dp4riQ/bBmfUVKPre9XJVqAOBqTwXBr5XeL8Nl/dglSfqlSLkkVCYwlkx4THb9a+cXr/Q8+3iU8JkDOpTYZIpmajUsDLxM6k7IxAYOXNMzLRC9l9r4IrEWAIOOhsMSLgJmBkjm5lwliBjJ45N6fBbFZ3yh7lDGOn9reZ8soM2kJ9h4+2McB8Oln/979Jl9dwIA5FGow8pCFNz8hzIAO/Vd56POQUIZy19a5HthI3M715D7bo7xc73FsTTvljnrN1sPDNnX1p6DMP+bLxegDx+rPvEP76Fhe10QHljy0sMYWbCUepO8yhl8m9ulXzs16aU1m/fo+eox8cwz+41qgE7qNdNDOZKWOvS8ChxDAh4iZuUfwNy580TPA+AQdcYlx7rnw0aRFpntvTBpmbc9neMEXnXZn1Bd/IIPYRB88qS3IZO6MZ/bBd9QJXvRjH/fYJ430u44v/lG+dDnGPXNmMhljLhg7rr1LPEcs4QEuzIfP3z/8+AE/+VpDkziNuj5me1WiBfAYZpkFOce2qklk+BJ1SqKViY768Qcs+LI0S6RIjvhC9t0fvvIggXOu9Uwn9GOuX62aaIlW660RICAdekBkH0ND4DYQZSB1bzuWQQr+mVxgT9ITJ2aFeZnMzWhmfQb/2Rh9h2xhvnZwgPhwnoHeIA+/PBzywRP9oRMnbU577ZvJm+kvfcbVGd3Yhw4pdxzPNcJObPaPRqBb2jXOpQ3/XPMZzdiHLfgUspeKGKID/D3QoV9aDzESU7HSrn3y4Mv4KX7HvEP7aMnOa+8X0/R7dNb39S2w9l4sx72fti6tyaxfHZAJ1sk3x5Sba4FO6DbSQTuTlTr2vggcQgB/ZG+k7zuHMRMt+/Dh3Eu0nUtN+5iCT4+09HFR5IWPE8OhnemibOawR2gzx5JymI9N2gVPxpVFf+49xozFS7X6Im+kVxfiv/MTO/SE5r1nH+xNGD2fRvuQl/K1R9vPUa9KtFBY41CWBTjlAFtrKAlTJk2vv/nu/f/RIqGx5BctEh8SJhM0kqNfv/bGjpQ5JkR0vPXOX+5/UogckzF5wzflZ6L17K8f3ctAVv48MefkmPq2LgKPgYBBOAPryJdARDC79jIG0Zm+t2LLTPdT+7CZeHxMwQ9MLo+hP5XGA5I1ewoFfG9hj3wVrFkjvhxSWCcf1pa+Jo57izM/E6KZbDBL3HjT7z7O/nyeGPmmbsgYH/bgg24U7vPFAf354DbTsX1FYAmB9D18a4yz+GImN/o2X1SMsxk7Mv7Sb3JxqNanTYTQF9/W722P+jGefeqHHhZpGPPlmHYxl3Hoed7ft5eg48oib/uyrQx4gy3yKWnjOCYf59q2Tvu4hxfYgh9xTRylP0e9KtFCQUDTQfYtwJbGmPj4M0C/RpHImAwhPxMt284Zf9rHXMfkQW1yRDLFHOcxJj21OizplrzQpYnWlh5S3uPDx4gI+xiaay9LwTX1vhVbUuc193mwHMOHg8sHgGPoT6XxgD51/jXNw+843/KB5Zr0W6NLnuHGAB+qONvzXB/3FrgcSrTwTx5ufE4Qw7F/fGmbfKV1LnLzrTp6oxtFWuXxoHUOf1+zBp17vQikb80e+sczCT/UFx3Db/FX9gH39OdHCfdb7jUQgY8+T5t5uS8SNfweXeFl4X70/RmdcuDvvkrdGaeNfuwr7VOOe874YT81fWkDc92b1OrM/rdfHOQ7k6l+KYv7mX3iK//UZ5y/RXt1orWFUuVZBIrAeREg+M2C5Hm1eBxpT8mWx0HkIZfZ4fuQoq0i8HQQ4IFs6eH06VhZS7ZAgAfy2bmYCQAP7z64L9FzJpk8HNITHiYEyZt58OHKpCdp857E5Xdv/vFL+puI5F/lUzdkKwNe3KtPvggBE+b86c/vfekr14jN+AVJnthjssSZBE/mUvyipT7anvaN99pLPzLzp4apO7yQNeq1E7zRP020NgK2bItAESgCRaAIFIHzIsDDGZeFhyquliJQBIrAJRBoonUJ1CuzCBSBIlAEisATQWD2ht235JcwkcTKN97nfHN9CVsrswgUgetGoInWda9PtSsCRaAIFIEiUASKQBEoAkXgBhFoonWDi1aVi0ARKAJFoAgUgSJQBIpAEbhuBJpoXff6VLsiUASKQBEoAkWgCBSBIlAEbhCBJlo3uGhVuQgUgSJQBIpAESgCRaAIFIHrRqCJ1nWvT7UrAkWgCBSBIlAEikARKAJF4AYRaKJ1g4tWlYtAESgCRaAIFIEiUASKQBG4bgSaaF33+lS7IlAEikARKAJFoAgUgSJQBG4QgSZaN7hoVbkIFIEiUASKQOa2ff4AAACcSURBVBEoAkWgCBSB60bgQaL1r0//e9erGNQH6gP1gfpAfaA+UB+oD9QH6gP1gXU+cJ9oXXc+WO2KQBEoAkWgCBSBIlAEikARKAK3g0ATrdtZq2paBIpAESgCRaAIFIEiUASKwI0g0ETrRhaqahaBIlAEikARKAJFoAgUgSJwOwg00bqdtaqmRaAIFIEiUASKQBEoAkWgCNwIAv8H5Zaz+zXfnFUAAAAASUVORK5CYII=;" vertex="1" parent="1">
          <mxGeometry x="260" y="50" width="748" height="312.1" as="geometry" />
        </mxCell>
      </root>
    </mxGraphModel>
  </diagram>
</mxfile>
